<?xml version="1.0" encoding="UTF-8" standalone="no" ?>
<!DOCTYPE svg PUBLIC "-//W3C//DTD SVG 1.1//EN" "http://www.w3.org/Graphics/SVG/1.1/DTD/svg11.dtd">
<svg xmlns="http://www.w3.org/2000/svg" xmlns:xlink="http://www.w3.org/1999/xlink" version="1.1" width="1080" height="1080" viewBox="0 0 1080 1080" xml:space="preserve">
<desc>Created with Fabric.js 5.2.4</desc>
<defs>
</defs>
<g transform="matrix(1 0 0 1 540 540)" id="76afe759-8e9e-435b-8553-06d917a211c2"  >
<rect style="stroke: none; stroke-width: 1; stroke-dasharray: none; stroke-linecap: butt; stroke-dashoffset: 0; stroke-linejoin: miter; stroke-miterlimit: 4; fill: rgb(255,255,255); fill-rule: nonzero; opacity: 1; visibility: hidden;" vector-effect="non-scaling-stroke"  x="-540" y="-540" rx="0" ry="0" width="1080" height="1080" />
</g>
<g transform="matrix(1 0 0 1 540 540)" id="1b45c10c-1acc-4898-b6d2-05ccc028805f"  >
</g>
<g transform="matrix(28.69 0 0 28.69 540 540)"  >
<g style="" vector-effect="non-scaling-stroke"   >
		<g transform="matrix(1 0 0 1 -8 0)"  >
<path style="stroke: none; stroke-width: 1; stroke-dasharray: none; stroke-linecap: butt; stroke-dashoffset: 0; stroke-linejoin: miter; stroke-miterlimit: 4; fill: rgb(226,226,226); fill-rule: nonzero; opacity: 1;" vector-effect="non-scaling-stroke"  transform=" translate(242.31, -420.9)" d="M -242.4 404.9 L -234.6 404.9 C -233.9 404.9 -233.4 405.7 -233.7 406.29999999999995 L -241 420.9 L -233.7 435.5 C -233.39999999999998 436.2 -233.89999999999998 436.9 -234.6 436.9 L -242.4 436.9 C -242.8 436.9 -243.1 436.7 -243.3 436.29999999999995 L -251 420.9 L -243.3 405.5 C -243.1 405.1 -242.8 404.9 -242.4 404.9 z" stroke-linecap="round" />
</g>
		<g transform="matrix(1 0 0 1 8 0)"  >
<path style="stroke: none; stroke-width: 1; stroke-dasharray: none; stroke-linecap: butt; stroke-dashoffset: 0; stroke-linejoin: miter; stroke-miterlimit: 4; fill: rgb(226,226,226); fill-rule: nonzero; opacity: 1;" vector-effect="non-scaling-stroke"  transform=" translate(226.31, -420.9)" d="M -226.4 404.9 L -218.6 404.9 C -217.9 404.9 -217.4 405.7 -217.7 406.29999999999995 L -225 420.9 L -217.7 435.5 C -217.39999999999998 436.2 -217.89999999999998 436.9 -218.6 436.9 L -226.4 436.9 C -226.8 436.9 -227.1 436.7 -227.3 436.29999999999995 L -235 420.9 L -227.3 405.5 C -227.1 405.1 -226.8 404.9 -226.4 404.9 z" stroke-linecap="round" />
</g>
</g>
</g>
</svg>