<?xml version="1.0" encoding="UTF-8" standalone="no" ?>
<!DOCTYPE svg PUBLIC "-//W3C//DTD SVG 1.1//EN" "http://www.w3.org/Graphics/SVG/1.1/DTD/svg11.dtd">
<svg xmlns="http://www.w3.org/2000/svg" xmlns:xlink="http://www.w3.org/1999/xlink" version="1.1" width="1080" height="1080" viewBox="0 0 1080 1080" xml:space="preserve">
<desc>Created with Fabric.js 5.2.4</desc>
<defs>
</defs>
<rect x="0" y="0" width="100%" height="100%" fill="transparent"></rect>
<g transform="matrix(1 0 0 1 540 540)" id="09dd9863-aa09-4701-be90-120ffde9a504"  >
<rect style="stroke: none; stroke-width: 1; stroke-dasharray: none; stroke-linecap: butt; stroke-dashoffset: 0; stroke-linejoin: miter; stroke-miterlimit: 4; fill: rgb(255,255,255); fill-rule: nonzero; opacity: 1; visibility: hidden;" vector-effect="non-scaling-stroke"  x="-540" y="-540" rx="0" ry="0" width="1080" height="1080" />
</g>
<g transform="matrix(1 0 0 1 540 540)" id="435192e5-5c6e-4563-9178-9824d20ac5d4"  >
</g>
<g transform="matrix(1.94 0 0 1.94 540 540)" id="738ee0d9-f408-4b2d-9489-2496af836cc8"  >
<path style="stroke: rgb(0,0,0); stroke-width: 0; stroke-dasharray: none; stroke-linecap: butt; stroke-dashoffset: 0; stroke-linejoin: miter; stroke-miterlimit: 4; fill: rgb(226,226,226); fill-rule: nonzero; opacity: 1;" vector-effect="non-scaling-stroke"  transform=" translate(-252.89, -258.2)" d="M 474.89 300.41 C 474.81834993557345 367.37243927114633 420.5524392711463 421.6383499355735 353.59 421.71000000000004 L 247.08 421.71000000000004 L 247.08 392.13 L 353.59 392.13 C 404.24555725448033 392.13 445.30999999999995 351.0655572544804 445.30999999999995 300.40999999999997 C 445.30999999999995 249.7544427455196 404.24555725448033 208.69 353.59 208.69 L 87.53 208.69 L 151 272.2 L 130.07999999999998 293.12 L 30.89 193.9 L 130.11 94.68 L 151 115.6 L 87.5 179.10999999999999 L 353.59 179.10999999999999 C 420.5524392711463 179.18165006442652 474.8183499355735 233.44756072885374 474.89 300.4100000000001 Z" stroke-linecap="round" />
</g>
</svg>