<?xml version="1.0" encoding="UTF-8" standalone="no" ?>
<!DOCTYPE svg PUBLIC "-//W3C//DTD SVG 1.1//EN" "http://www.w3.org/Graphics/SVG/1.1/DTD/svg11.dtd">
<svg xmlns="http://www.w3.org/2000/svg" xmlns:xlink="http://www.w3.org/1999/xlink" version="1.1" width="1080" height="1080" viewBox="0 0 1080 1080" xml:space="preserve">
<desc>Created with Fabric.js 5.2.4</desc>
<defs>
</defs>
<g transform="matrix(1 0 0 1 540 540)" id="bfa56aae-5f3c-4342-8f32-82188d173563"  >
<rect style="stroke: none; stroke-width: 1; stroke-dasharray: none; stroke-linecap: butt; stroke-dashoffset: 0; stroke-linejoin: miter; stroke-miterlimit: 4; fill: rgb(255,255,255); fill-rule: nonzero; opacity: 1; visibility: hidden;" vector-effect="non-scaling-stroke"  x="-540" y="-540" rx="0" ry="0" width="1080" height="1080" />
</g>
<g transform="matrix(1 0 0 1 540 540)" id="4f7b4430-f050-46b0-8cff-ba8465b92083"  >
</g>
<g transform="matrix(1.76 0 0 1.76 540 540)" id="670c7c9d-3480-451b-8b4e-9d00e8636870"  >
<path style="stroke: rgb(0,0,0); stroke-width: 0; stroke-dasharray: none; stroke-linecap: butt; stroke-dashoffset: 0; stroke-linejoin: miter; stroke-miterlimit: 4; fill: rgb(226,226,226); fill-rule: nonzero; opacity: 1;" vector-effect="non-scaling-stroke"  transform=" translate(-256, -256)" d="M 256 32 C 132.3 32 32 132.3 32 256 C 32 379.7 132.3 480 256 480 C 379.7 480 480 379.7 480 256 C 480 132.3 379.7 32 256 32 z M 276.2 358.7 C 275.7 376.5 262.5 387.5 245.39999999999998 387 C 228.99999999999997 386.5 216.09999999999997 374.8 216.59999999999997 356.9 C 217.09999999999997 339.09999999999997 230.69999999999996 327.79999999999995 247.09999999999997 328.29999999999995 C 264.3 328.8 276.8 340.9 276.2 358.7 z M 324.9 231.4 C 320.7 237.3 311.29999999999995 244.9 299.5 254.1 L 286.4 263.1 C 280 268 276 273.8 273.9 280.40000000000003 C 272.79999999999995 283.90000000000003 272 293.00000000000006 271.79999999999995 299.1 C 271.69999999999993 300.3 270.99999999999994 303 267.29999999999995 303 C 263.59999999999997 303 232.29999999999995 303 228.19999999999996 303 C 224.09999999999997 303 223.59999999999997 300.6 223.69999999999996 299.4 C 224.29999999999995 282.79999999999995 226.69999999999996 269.09999999999997 233.59999999999997 258.09999999999997 C 242.89999999999998 243.29999999999995 269.09999999999997 227.69999999999996 269.09999999999997 227.69999999999996 C 273.09999999999997 224.69999999999996 276.2 221.49999999999997 278.59999999999997 217.99999999999997 C 282.99999999999994 211.99999999999997 286.59999999999997 205.29999999999998 286.59999999999997 198.09999999999997 C 286.59999999999997 189.79999999999995 284.59999999999997 181.89999999999998 279.29999999999995 175.29999999999995 C 273.09999999999997 167.59999999999997 266.4 163.89999999999995 253.49999999999994 163.89999999999995 C 240.79999999999995 163.89999999999995 233.39999999999995 170.29999999999995 228.09999999999994 178.69999999999996 C 222.79999999999993 187.09999999999997 223.69999999999993 196.99999999999997 223.69999999999993 205.99999999999997 L 175 205.99999999999997 C 175 171.99999999999997 183.9 150.29999999999995 202.7 137.49999999999997 C 215.39999999999998 128.79999999999998 231.6 124.99999999999997 250.5 124.99999999999997 C 275.3 124.99999999999997 295 129.59999999999997 312.4 142.79999999999998 C 328.5 154.99999999999997 337 172.2 337 195.39999999999998 C 337 209.7 332 221.7 324.9 231.4 z" stroke-linecap="round" />
</g>
</svg>