<?xml version="1.0" encoding="UTF-8" standalone="no" ?>
<!DOCTYPE svg PUBLIC "-//W3C//DTD SVG 1.1//EN" "http://www.w3.org/Graphics/SVG/1.1/DTD/svg11.dtd">
<svg xmlns="http://www.w3.org/2000/svg" xmlns:xlink="http://www.w3.org/1999/xlink" version="1.1" width="1080" height="1080" viewBox="0 0 1080 1080" xml:space="preserve">
<desc>Created with Fabric.js 5.2.4</desc>
<defs>
</defs>
<rect x="0" y="0" width="100%" height="100%" fill="transparent"></rect>
<g transform="matrix(1 0 0 1 540 540)" id="00b72de4-69bc-4360-b3e8-5098f5600ed6"  >
</g>
<g transform="matrix(1 0 0 1 540 540)" id="e4eb891d-841e-4745-8099-105c180cd138"  >
<rect style="stroke: none; stroke-width: 1; stroke-dasharray: none; stroke-linecap: butt; stroke-dashoffset: 0; stroke-linejoin: miter; stroke-miterlimit: 4; fill: rgb(255,255,255); fill-rule: nonzero; opacity: 1; visibility: hidden;" vector-effect="non-scaling-stroke"  x="-540" y="-540" rx="0" ry="0" width="1080" height="1080" />
</g>
<g transform="matrix(1.89 0 0 1.89 539.02 539.02)"  >
<path style="stroke: rgb(0,0,0); stroke-width: 0; stroke-dasharray: none; stroke-linecap: butt; stroke-dashoffset: 0; stroke-linejoin: miter; stroke-miterlimit: 4; fill: rgb(226,226,226); fill-rule: nonzero; opacity: 1;" vector-effect="non-scaling-stroke"  transform=" translate(-1942, -1380)" d="M 2192 1260 C 2192 1188.25 2133.75 1130 2062 1130 C 2062 1130 1822 1130 1822 1130 C 1750.25 1130 1692 1188.25 1692 1260 C 1692 1260 1692 1500 1692 1500 C 1692 1571.75 1750.25 1630 1822 1630 C 1822 1630 2062 1630 2062 1630 C 2133.75 1630 2192 1571.75 2192 1500 L 2192 1260 Z M 2172 1260 L 2172 1500 C 2172 1560.71 2122.71 1610 2062 1610 L 1822 1610 C 1761.29 1610 1712 1560.71 1712 1500 L 1712 1260 C 1712 1199.29 1761.29 1150 1822 1150 L 2062 1150 C 2122.71 1150 2172 1199.29 2172 1260 Z M 2142 1285 C 2142 1227.05 2094.95 1180 2037 1180 L 1847 1180 C 1789.05 1180 1742 1227.05 1742 1285 L 1742 1475 C 1742 1532.95 1789.05 1580 1847 1580 C 1847 1580 2037 1580 2037 1580 C 2094.95 1580 2142 1532.95 2142 1475 C 2142 1475 2142 1285 2142 1285 Z M 2122 1285 L 2122 1475 C 2122 1521.91 2083.91 1560 2037 1560 L 1847 1560 C 1800.09 1560 1762 1521.91 1762 1475 C 1762 1475 1762 1285 1762 1285 C 1762 1238.09 1800.09 1200 1847 1200 C 1847 1200 2037 1200 2037 1200 C 2083.91 1200 2122 1238.09 2122 1285 Z" stroke-linecap="round" />
</g>
<g transform="matrix(10.31 0 0 10.31 540 540)"  >
<g style="" vector-effect="non-scaling-stroke"   >
		<g transform="matrix(1 0 0 1 -11 0)"  >
<path style="stroke: none; stroke-width: 1; stroke-dasharray: none; stroke-linecap: butt; stroke-dashoffset: 0; stroke-linejoin: miter; stroke-miterlimit: 4; fill: rgb(226,226,226); fill-rule: nonzero; opacity: 1;" vector-effect="non-scaling-stroke"  transform=" translate(-13, -24)" d="M 13 48 C 12.447 48 12 47.552 12 47 L 12 1 C 12 0.44799999999999995 12.447 0 13 0 C 13.553 0 14 0.448 14 1 L 14 47 C 14 47.552 13.553 48 13 48 z" stroke-linecap="round" />
</g>
		<g transform="matrix(1 0 0 1 0 0)"  >
<path style="stroke: none; stroke-width: 1; stroke-dasharray: none; stroke-linecap: butt; stroke-dashoffset: 0; stroke-linejoin: miter; stroke-miterlimit: 4; fill: rgb(226,226,226); fill-rule: nonzero; opacity: 1;" vector-effect="non-scaling-stroke"  transform=" translate(-24, -24)" d="M 24 48 C 23.447 48 23 47.552 23 47 L 23 1 C 23 0.44799999999999995 23.447 0 24 0 C 24.553 0 25 0.448 25 1 L 25 47 C 25 47.552 24.553 48 24 48 z" stroke-linecap="round" />
</g>
		<g transform="matrix(1 0 0 1 11 0)"  >
<path style="stroke: none; stroke-width: 1; stroke-dasharray: none; stroke-linecap: butt; stroke-dashoffset: 0; stroke-linejoin: miter; stroke-miterlimit: 4; fill: rgb(226,226,226); fill-rule: nonzero; opacity: 1;" vector-effect="non-scaling-stroke"  transform=" translate(-35, -24)" d="M 35 48 C 34.447 48 34 47.552 34 47 L 34 1 C 34 0.44799999999999995 34.447 0 35 0 C 35.553 0 36 0.448 36 1 L 36 47 C 36 47.552 35.553 48 35 48 z" stroke-linecap="round" />
</g>
		<g transform="matrix(1 0 0 1 0 -11)"  >
<path style="stroke: none; stroke-width: 1; stroke-dasharray: none; stroke-linecap: butt; stroke-dashoffset: 0; stroke-linejoin: miter; stroke-miterlimit: 4; fill: rgb(226,226,226); fill-rule: nonzero; opacity: 1;" vector-effect="non-scaling-stroke"  transform=" translate(-24, -13)" d="M 47 14 L 1 14 C 0.44699999999999995 14 0 13.552 0 13 C 0 12.448 0.447 12 1 12 L 47 12 C 47.553 12 48 12.448 48 13 C 48 13.552 47.553 14 47 14 z" stroke-linecap="round" />
</g>
		<g transform="matrix(1 0 0 1 0 0)"  >
<path style="stroke: none; stroke-width: 1; stroke-dasharray: none; stroke-linecap: butt; stroke-dashoffset: 0; stroke-linejoin: miter; stroke-miterlimit: 4; fill: rgb(226,226,226); fill-rule: nonzero; opacity: 1;" vector-effect="non-scaling-stroke"  transform=" translate(-24, -24)" d="M 47 25 L 1 25 C 0.44699999999999995 25 0 24.552 0 24 C 0 23.448 0.447 23 1 23 L 47 23 C 47.553 23 48 23.448 48 24 C 48 24.552 47.553 25 47 25 z" stroke-linecap="round" />
</g>
		<g transform="matrix(1 0 0 1 0 11)"  >
<path style="stroke: none; stroke-width: 1; stroke-dasharray: none; stroke-linecap: butt; stroke-dashoffset: 0; stroke-linejoin: miter; stroke-miterlimit: 4; fill: rgb(226,226,226); fill-rule: nonzero; opacity: 1;" vector-effect="non-scaling-stroke"  transform=" translate(-24, -35)" d="M 47 36 L 1 36 C 0.44699999999999995 36 0 35.552 0 35 C 0 34.448 0.447 34 1 34 L 47 34 C 47.553 34 48 34.448 48 35 C 48 35.552 47.553 36 47 36 z" stroke-linecap="round" />
</g>
</g>
</g>
</svg>