<?xml version="1.0" encoding="UTF-8" standalone="no" ?>
<!DOCTYPE svg PUBLIC "-//W3C//DTD SVG 1.1//EN" "http://www.w3.org/Graphics/SVG/1.1/DTD/svg11.dtd">
<svg xmlns="http://www.w3.org/2000/svg" xmlns:xlink="http://www.w3.org/1999/xlink" version="1.1" width="1080" height="1080" viewBox="0 0 1080 1080" xml:space="preserve">
<desc>Created with Fabric.js 5.2.4</desc>
<defs>
</defs>
<rect x="0" y="0" width="100%" height="100%" fill="transparent"></rect>
<g transform="matrix(1 0 0 1 540 540)" id="d4ed9f5f-37c3-4056-8af1-b5f654035a17"  >
<rect style="stroke: none; stroke-width: 1; stroke-dasharray: none; stroke-linecap: butt; stroke-dashoffset: 0; stroke-linejoin: miter; stroke-miterlimit: 4; fill: rgb(255,255,255); fill-rule: nonzero; opacity: 1; visibility: hidden;" vector-effect="non-scaling-stroke"  x="-540" y="-540" rx="0" ry="0" width="1080" height="1080" />
</g>
<g transform="matrix(1 0 0 1 540 540)" id="37e83971-35e9-44e1-bff9-1e665139e55e"  >
</g>
<g transform="matrix(5.05 0 0 1.18 855.63 539.92)" id="a5224dcd-798d-45c8-babe-274e9418efd0"  >
<rect style="stroke: rgb(0,0,0); stroke-width: 0; stroke-dasharray: none; stroke-linecap: butt; stroke-dashoffset: 0; stroke-linejoin: miter; stroke-miterlimit: 4; fill: rgb(226,226,226); fill-rule: nonzero; opacity: 1;" vector-effect="non-scaling-stroke"  x="-33.085" y="-33.085" rx="0" ry="0" width="66.17" height="66.17" />
</g>
<g transform="matrix(1 0 0 1 540 540)"  >
<rect style="stroke: none; stroke-width: 1; stroke-dasharray: none; stroke-linecap: butt; stroke-dashoffset: 0; stroke-linejoin: miter; stroke-miterlimit: 4; fill: none; fill-rule: nonzero; opacity: 1;" vector-effect="non-scaling-stroke"  x="-25" y="-25" rx="0" ry="0" width="50" height="50" />
</g>
<g transform="matrix(0.53 0 0 -0.53 406.76 540)"  >
<path style="stroke: none; stroke-width: 1; stroke-dasharray: none; stroke-linecap: butt; stroke-dashoffset: 0; stroke-linejoin: miter; stroke-miterlimit: 4; fill: rgb(226,226,226); fill-rule: nonzero; opacity: 1;" vector-effect="non-scaling-stroke"  transform=" translate(-9761.66, -1200)" d="M 9050 1856 C 9050 1854 9165 1681 9305 1472 L 9560 1092 L 9560 816 L 9560 540 L 9765 540 L 9970 540 L 9970 816 L 9970 1092 L 10215 1457 C 10350 1658 10465 1831 10471 1841 C 10480 1859 10473 1860 10256 1860 L 10031 1860 L 9899 1640 C 9826 1519 9765 1422 9762 1425 C 9759 1428 9700 1525 9630 1642 L 9503 1855 L 9276 1858 C 9152 1859 9050 1858 9050 1856 z" stroke-linecap="round" />
</g>
</svg>