<?xml version="1.0" encoding="UTF-8" standalone="no" ?>
<!DOCTYPE svg PUBLIC "-//W3C//DTD SVG 1.1//EN" "http://www.w3.org/Graphics/SVG/1.1/DTD/svg11.dtd">
<svg xmlns="http://www.w3.org/2000/svg" xmlns:xlink="http://www.w3.org/1999/xlink" version="1.1" width="1080" height="1080" viewBox="0 0 1080 1080" xml:space="preserve">
<desc>Created with Fabric.js 5.2.4</desc>
<defs>
</defs>
<rect x="0" y="0" width="100%" height="100%" fill="transparent"></rect>
<g transform="matrix(1 0 0 1 540 540)" id="f11e3d70-848e-451d-8a66-8c9c57d1b909"  >
<rect style="stroke: none; stroke-width: 1; stroke-dasharray: none; stroke-linecap: butt; stroke-dashoffset: 0; stroke-linejoin: miter; stroke-miterlimit: 4; fill: rgb(255,255,255); fill-rule: nonzero; opacity: 1; visibility: hidden;" vector-effect="non-scaling-stroke"  x="-540" y="-540" rx="0" ry="0" width="1080" height="1080" />
</g>
<g transform="matrix(1 0 0 1 540 540)" id="d59ab504-5572-40d2-81fb-b84690c73b1e"  >
</g>
<g transform="matrix(1.47 0 0 1.47 540 540)" id="a3361f69-14f6-4ea7-baf3-b2215a1b5fd9"  >
<path style="stroke: rgb(0,0,0); stroke-width: 0; stroke-dasharray: none; stroke-linecap: butt; stroke-dashoffset: 0; stroke-linejoin: miter; stroke-miterlimit: 4; fill: rgb(62,184,22); fill-rule: nonzero; opacity: 1;" vector-effect="non-scaling-stroke"  transform=" translate(-256, -256)" d="M 256 8 C 119.043 8 8 119.083 8 256 C 8 392.997 119.043 504 256 504 C 392.957 504 504 392.997 504 256 C 504 119.083 392.957 8 256 8 z M 256 118 C 279.196 118 298 136.804 298 160 C 298 183.196 279.196 202 256 202 C 232.80399999999997 202 214 183.196 214 160 C 214 136.804 232.804 118 256 118 z M 312 372 C 312 378.627 306.627 384 300 384 L 212 384 C 205.373 384 200 378.627 200 372 L 200 348 C 200 341.373 205.373 336 212 336 L 224 336 L 224 272 L 212 272 C 205.373 272 200 266.627 200 260 L 200 236 C 200 229.373 205.373 224 212 224 L 276 224 C 282.627 224 288 229.373 288 236 L 288 336 L 300 336 C 306.627 336 312 341.373 312 348 L 312 372 z" stroke-linecap="round" />
</g>
<g transform="matrix(1 0 0 1 540 540)"  >
<rect style="stroke: none; stroke-width: 1; stroke-dasharray: none; stroke-linecap: butt; stroke-dashoffset: 0; stroke-linejoin: miter; stroke-miterlimit: 4; fill: rgb(255,255,255); fill-rule: nonzero; opacity: 1; visibility: hidden;" vector-effect="non-scaling-stroke"  x="-540" y="-540" rx="0" ry="0" width="1080" height="1080" />
</g>
<g transform="matrix(NaN NaN NaN NaN 0 0)"  >
<g style=""   >
</g>
</g>
<g transform="matrix(NaN NaN NaN NaN 0 0)"  >
<g style=""   >
</g>
</g>
</svg>