<?xml version="1.0" encoding="UTF-8" standalone="no" ?>
<!DOCTYPE svg PUBLIC "-//W3C//DTD SVG 1.1//EN" "http://www.w3.org/Graphics/SVG/1.1/DTD/svg11.dtd">
<svg xmlns="http://www.w3.org/2000/svg" xmlns:xlink="http://www.w3.org/1999/xlink" version="1.1" width="1080" height="1080" viewBox="0 0 1080 1080" xml:space="preserve">
<desc>Created with Fabric.js 5.2.4</desc>
<defs>
</defs>
<rect x="0" y="0" width="100%" height="100%" fill="transparent"></rect>
<g transform="matrix(1 0 0 1 540 540)" id="795343e6-7b4f-4f26-b272-fa025d583988"  >
<rect style="stroke: none; stroke-width: 1; stroke-dasharray: none; stroke-linecap: butt; stroke-dashoffset: 0; stroke-linejoin: miter; stroke-miterlimit: 4; fill: rgb(255,255,255); fill-rule: nonzero; opacity: 1; visibility: hidden;" vector-effect="non-scaling-stroke"  x="-540" y="-540" rx="0" ry="0" width="1080" height="1080" />
</g>
<g transform="matrix(1 0 0 1 540 540)" id="74e9beef-6938-4414-aad8-688bb81f5040"  >
</g>
<g transform="matrix(1.04 0 0 1.04 540 540)" id="path2996"  >
<path style="stroke: rgb(0,0,255); stroke-width: 0.35433072; stroke-dasharray: none; stroke-linecap: butt; stroke-dashoffset: 0; stroke-linejoin: miter; stroke-miterlimit: 4; fill: rgb(226,226,226); fill-rule: nonzero; opacity: 1; visibility: hidden;" vector-effect="non-scaling-stroke"  transform=" translate(-373.44, -529.95)" d="M 373.5 87.375 L 254 289.875 L 266.21875 310.59375 L 122.40625 331 L 373.4375 972.53125 L 624.46875 331 L 480.78125 310.59375 L 493 289.875 L 373.5 87.375 z" stroke-linecap="round" />
</g>
<g transform="matrix(0.78 0 0 0.71 540 935.27)" id="path3251"  >
<path style="stroke: rgb(0,255,0); stroke-width: 1; stroke-dasharray: none; stroke-linecap: butt; stroke-dashoffset: 0; stroke-linejoin: miter; stroke-miterlimit: 4; fill: rgb(226,226,226); fill-rule: nonzero; opacity: 1; visibility: hidden;" vector-effect="non-scaling-stroke"  transform=" translate(-230.84, -888.81)" d="M 240.18692 888.81079 C 240.18692 894.4884839650109 236.00266505354486 899.09116433 230.84112499999998 899.09116433 C 225.67958494645512 899.09116433 221.49533 894.4884839650109 221.49533 888.81079 C 221.49533 883.1330960349891 225.67958494645512 878.53041567 230.84112499999998 878.53041567 C 236.00266505354486 878.53041567 240.18692 883.1330960349891 240.18692 888.81079 z" stroke-linecap="round" />
</g>
<g transform="matrix(0.78 0 0 0.71 314.58 351.45)" id="path3253"  >
<path style="stroke: rgb(0,255,0); stroke-width: 1; stroke-dasharray: none; stroke-linecap: butt; stroke-dashoffset: 0; stroke-linejoin: miter; stroke-miterlimit: 4; fill: rgb(226,226,226); fill-rule: nonzero; opacity: 1; visibility: hidden;" vector-effect="non-scaling-stroke"  transform=" translate(-230.84, -888.81)" d="M 240.18692 888.81079 C 240.18692 894.4884839650109 236.00266505354486 899.09116433 230.84112499999998 899.09116433 C 225.67958494645512 899.09116433 221.49533 894.4884839650109 221.49533 888.81079 C 221.49533 883.1330960349891 225.67958494645512 878.53041567 230.84112499999998 878.53041567 C 236.00266505354486 878.53041567 240.18692 883.1330960349891 240.18692 888.81079 z" stroke-linecap="round" />
</g>
<g transform="matrix(0.78 0 0 0.71 763.49 351.45)" id="path3255"  >
<path style="stroke: rgb(0,255,0); stroke-width: 1; stroke-dasharray: none; stroke-linecap: butt; stroke-dashoffset: 0; stroke-linejoin: miter; stroke-miterlimit: 4; fill: rgb(226,226,226); fill-rule: nonzero; opacity: 1; visibility: hidden;" vector-effect="non-scaling-stroke"  transform=" translate(-230.84, -888.81)" d="M 240.18692 888.81079 C 240.18692 894.4884839650109 236.00266505354486 899.09116433 230.84112499999998 899.09116433 C 225.67958494645512 899.09116433 221.49533 894.4884839650109 221.49533 888.81079 C 221.49533 883.1330960349891 225.67958494645512 878.53041567 230.84112499999998 878.53041567 C 236.00266505354486 878.53041567 240.18692 883.1330960349891 240.18692 888.81079 z" stroke-linecap="round" />
</g>
<g transform="matrix(0.78 0 0 0.71 540 454.7)" id="path3257"  >
<path style="stroke: rgb(0,255,0); stroke-width: 1; stroke-dasharray: none; stroke-linecap: butt; stroke-dashoffset: 0; stroke-linejoin: miter; stroke-miterlimit: 4; fill: rgb(226,226,226); fill-rule: nonzero; opacity: 1; visibility: hidden;" vector-effect="non-scaling-stroke"  transform=" translate(-230.84, -888.81)" d="M 240.18692 888.81079 C 240.18692 894.4884839650109 236.00266505354486 899.09116433 230.84112499999998 899.09116433 C 225.67958494645512 899.09116433 221.49533 894.4884839650109 221.49533 888.81079 C 221.49533 883.1330960349891 225.67958494645512 878.53041567 230.84112499999998 878.53041567 C 236.00266505354486 878.53041567 240.18692 883.1330960349891 240.18692 888.81079 z" stroke-linecap="round" />
</g>
<g transform="matrix(0.78 0 0 0.71 540 140.52)" id="path3259"  >
<path style="stroke: rgb(0,255,0); stroke-width: 1; stroke-dasharray: none; stroke-linecap: butt; stroke-dashoffset: 0; stroke-linejoin: miter; stroke-miterlimit: 4; fill: rgb(226,226,226); fill-rule: nonzero; opacity: 1; visibility: hidden;" vector-effect="non-scaling-stroke"  transform=" translate(-230.84, -888.81)" d="M 240.18692 888.81079 C 240.18692 894.4884839650109 236.00266505354486 899.09116433 230.84112499999998 899.09116433 C 225.67958494645512 899.09116433 221.49533 894.4884839650109 221.49533 888.81079 C 221.49533 883.1330960349891 225.67958494645512 878.53041567 230.84112499999998 878.53041567 C 236.00266505354486 878.53041567 240.18692 883.1330960349891 240.18692 888.81079 z" stroke-linecap="round" />
</g>
<g transform="matrix(1.04 0 0 1.04 539.28 590.8)" id="rect3062"  >
<rect style="stroke: rgb(255,255,0); stroke-width: 0.35433072; stroke-dasharray: none; stroke-linecap: butt; stroke-dashoffset: 0; stroke-linejoin: miter; stroke-miterlimit: 4; fill: rgb(226,226,226); fill-rule: nonzero; opacity: 1; visibility: hidden;" vector-effect="non-scaling-stroke"  x="-78.75" y="-90" rx="0" ry="0" width="157.5" height="180" />
</g>
<g transform="matrix(0.69 0 0 0.84 474.47 590.8)" id="path3065"  >
<path style="stroke: rgb(0,255,0); stroke-width: 0.48076731; stroke-dasharray: none; stroke-linecap: butt; stroke-dashoffset: 0; stroke-linejoin: miter; stroke-miterlimit: 4; fill: rgb(226,226,226); fill-rule: nonzero; opacity: 1; visibility: hidden;" vector-effect="non-scaling-stroke"  transform=" translate(-125.7, -604.61)" d="M 137.12913 604.61481 C 137.1291277724519 609.7785137407097 132.01289325836314 613.9645213556083 125.7017 613.96452 C 119.39050674163687 613.9645213556083 114.2742722275481 609.7785137407097 114.27427 604.61481 C 114.2742678281702 602.1351102714422 115.47822488343184 599.7569720158726 117.62128404223473 598.0035591244139 C 119.76434320103763 596.2501462329551 122.67095598456356 595.265089349013 125.7017 595.26509 C 128.73244401543644 595.265089349013 131.63905679896237 596.2501462329551 133.78211595776526 598.0035591244139 C 135.92517511656817 599.7569720158726 137.1291321718298 602.1351102714422 137.12913 604.61481 z" stroke-linecap="round" />
</g>
<g transform="matrix(0.69 0 0 0.84 604.3 590.8)" id="path3067"  >
<path style="stroke: rgb(0,255,0); stroke-width: 0.48076731; stroke-dasharray: none; stroke-linecap: butt; stroke-dashoffset: 0; stroke-linejoin: miter; stroke-miterlimit: 4; fill: rgb(226,226,226); fill-rule: nonzero; opacity: 1; visibility: hidden;" vector-effect="non-scaling-stroke"  transform=" translate(-125.7, -604.61)" d="M 137.12913 604.61481 C 137.1291277724519 609.7785137407097 132.01289325836314 613.9645213556083 125.7017 613.96452 C 119.39050674163687 613.9645213556083 114.2742722275481 609.7785137407097 114.27427 604.61481 C 114.2742678281702 602.1351102714422 115.47822488343184 599.7569720158726 117.62128404223473 598.0035591244139 C 119.76434320103763 596.2501462329551 122.67095598456356 595.265089349013 125.7017 595.26509 C 128.73244401543644 595.265089349013 131.63905679896237 596.2501462329551 133.78211595776526 598.0035591244139 C 135.92517511656817 599.7569720158726 137.1291321718298 602.1351102714422 137.12913 604.61481 z" stroke-linecap="round" />
</g>
<g transform="matrix(1.02 0 0 0.98 540 832.47)" id="path3879"  >
<path style="stroke: rgb(0,255,0); stroke-width: 0.36595374; stroke-dasharray: none; stroke-linecap: butt; stroke-dashoffset: 0; stroke-linejoin: miter; stroke-miterlimit: 4; fill: rgb(226,226,226); fill-rule: nonzero; opacity: 1; visibility: hidden;" vector-effect="non-scaling-stroke"  transform=" translate(-354.55, -799.47)" d="M 372.72726 799.4696 C 372.72726 809.9675760350196 364.5869819101685 818.4778670909092 354.54544 818.4778670909092 C 344.5038980898315 818.4778670909092 336.36362 809.9675760350196 336.36362 799.4696 C 336.36362 788.9716239649804 344.5038980898315 780.4613329090909 354.54544 780.4613329090909 C 364.5869819101685 780.4613329090909 372.72726 788.9716239649804 372.72726 799.4696 z" stroke-linecap="round" />
</g>
<g transform="matrix(1.04 0 0 1.04 540 540)" id="path3070"  >
<path style="stroke: rgb(0,0,255); stroke-width: 0.35433072; stroke-dasharray: none; stroke-linecap: butt; stroke-dashoffset: 0; stroke-linejoin: miter; stroke-miterlimit: 4; fill: rgb(226,226,226); fill-rule: nonzero; opacity: 1; visibility: hidden;" vector-effect="non-scaling-stroke"  transform=" translate(-373.44, -529.95)" d="M 373.5 87.375 L 254 289.875 L 266.21875 310.59375 L 122.40625 331 L 373.4375 972.53125 L 624.46875 331 L 480.78125 310.59375 L 493 289.875 L 373.5 87.375 z M 374.4375 332.875 L 572.84375 361.9375 L 524.34375 489.90625 L 480.75 489.90625 L 480.75 489.87505 L 452.71875 489.87505 L 452.71875 669.9063 L 392.03125 669.9063 L 392.03125 830.87505 L 354.84375 830.87505 L 354.84375 669.9063 L 292.75 669.9063 L 292.1875 668.43755 L 292.1875 588.7813 L 292.1875 485.87505 L 283.53125 485.87505 L 252.875 485.87505 L 223 485.87505 L 176 361.93755 L 374.4375 332.87505 z" stroke-linecap="round" />
</g>
<g transform="matrix(0.78 0 0 0.71 540 935.27)" id="path3233"  >
<path style="stroke: rgb(0,255,0); stroke-width: 0.49009761; stroke-dasharray: none; stroke-linecap: butt; stroke-dashoffset: 0; stroke-linejoin: miter; stroke-miterlimit: 4; fill: rgb(226,226,226); fill-rule: nonzero; opacity: 1; visibility: hidden;" vector-effect="non-scaling-stroke"  transform=" translate(-230.84, -888.81)" d="M 240.18692 888.81079 C 240.18692 894.4884839650109 236.00266505354486 899.09116433 230.84112499999998 899.09116433 C 225.67958494645512 899.09116433 221.49533 894.4884839650109 221.49533 888.81079 C 221.49533 883.1330960349891 225.67958494645512 878.53041567 230.84112499999998 878.53041567 C 236.00266505354486 878.53041567 240.18692 883.1330960349891 240.18692 888.81079 z" stroke-linecap="round" />
</g>
<g transform="matrix(0.78 0 0 0.71 314.58 351.45)" id="path3235"  >
<path style="stroke: rgb(0,255,0); stroke-width: 0.49009761; stroke-dasharray: none; stroke-linecap: butt; stroke-dashoffset: 0; stroke-linejoin: miter; stroke-miterlimit: 4; fill: rgb(226,226,226); fill-rule: nonzero; opacity: 1; visibility: hidden;" vector-effect="non-scaling-stroke"  transform=" translate(-230.84, -888.81)" d="M 240.18692 888.81079 C 240.18692 894.4884839650109 236.00266505354486 899.09116433 230.84112499999998 899.09116433 C 225.67958494645512 899.09116433 221.49533 894.4884839650109 221.49533 888.81079 C 221.49533 883.1330960349891 225.67958494645512 878.53041567 230.84112499999998 878.53041567 C 236.00266505354486 878.53041567 240.18692 883.1330960349891 240.18692 888.81079 z" stroke-linecap="round" />
</g>
<g transform="matrix(0.78 0 0 0.71 763.49 351.45)" id="path3237"  >
<path style="stroke: rgb(0,255,0); stroke-width: 0.49009761; stroke-dasharray: none; stroke-linecap: butt; stroke-dashoffset: 0; stroke-linejoin: miter; stroke-miterlimit: 4; fill: rgb(226,226,226); fill-rule: nonzero; opacity: 1; visibility: hidden;" vector-effect="non-scaling-stroke"  transform=" translate(-230.84, -888.81)" d="M 240.18692 888.81079 C 240.18692 894.4884839650109 236.00266505354486 899.09116433 230.84112499999998 899.09116433 C 225.67958494645512 899.09116433 221.49533 894.4884839650109 221.49533 888.81079 C 221.49533 883.1330960349891 225.67958494645512 878.53041567 230.84112499999998 878.53041567 C 236.00266505354486 878.53041567 240.18692 883.1330960349891 240.18692 888.81079 z" stroke-linecap="round" />
</g>
<g transform="matrix(0.78 0 0 0.71 540 140.52)" id="path3241"  >
<path style="stroke: rgb(0,255,0); stroke-width: 0.49009761; stroke-dasharray: none; stroke-linecap: butt; stroke-dashoffset: 0; stroke-linejoin: miter; stroke-miterlimit: 4; fill: rgb(226,226,226); fill-rule: nonzero; opacity: 1; visibility: hidden;" vector-effect="non-scaling-stroke"  transform=" translate(-230.84, -888.81)" d="M 240.18692 888.81079 C 240.18692 894.4884839650109 236.00266505354486 899.09116433 230.84112499999998 899.09116433 C 225.67958494645512 899.09116433 221.49533 894.4884839650109 221.49533 888.81079 C 221.49533 883.1330960349891 225.67958494645512 878.53041567 230.84112499999998 878.53041567 C 236.00266505354486 878.53041567 240.18692 883.1330960349891 240.18692 888.81079 z" stroke-linecap="round" />
</g>
<g transform="matrix(1.04 0 0 1.04 540 540)" id="path3033"  >
<path style="stroke: rgb(0,0,255); stroke-width: 0.35433072; stroke-dasharray: none; stroke-linecap: butt; stroke-dashoffset: 0; stroke-linejoin: miter; stroke-miterlimit: 4; fill: rgb(226,226,226); fill-rule: nonzero; opacity: 1; visibility: hidden;" vector-effect="non-scaling-stroke"  transform=" translate(-373.44, -529.95)" d="M 373.5 87.375 L 254 289.875 L 266.21875 310.59375 L 122.40625 331 L 373.4375 972.53125 L 624.46875 331 L 480.78125 310.59375 L 493 289.875 z M 373.25 162.125 L 448 293.5 L 420.75 345.5 L 460.21875 345.4375 L 572.84375 361.9375 L 374.4375 885.375 L 176 361.9375 L 286.9375 345.6875 L 311.66714 342.50843 L 298.5 293.5 z" stroke-linecap="round" />
</g>
<g transform="matrix(0.78 0 0 0.71 540 935.27)" id="path3045"  >
<path style="stroke: rgb(0,255,0); stroke-width: 0.49009761; stroke-dasharray: none; stroke-linecap: butt; stroke-dashoffset: 0; stroke-linejoin: miter; stroke-miterlimit: 4; fill: rgb(226,226,226); fill-rule: nonzero; opacity: 1; visibility: hidden;" vector-effect="non-scaling-stroke"  transform=" translate(-230.84, -888.81)" d="M 240.18692 888.81079 C 240.18692 894.4884839650109 236.00266505354486 899.09116433 230.84112499999998 899.09116433 C 225.67958494645512 899.09116433 221.49533 894.4884839650109 221.49533 888.81079 C 221.49533 883.1330960349891 225.67958494645512 878.53041567 230.84112499999998 878.53041567 C 236.00266505354486 878.53041567 240.18692 883.1330960349891 240.18692 888.81079 z" stroke-linecap="round" />
</g>
<g transform="matrix(0.78 0 0 0.71 314.58 351.45)" id="path3047"  >
<path style="stroke: rgb(0,255,0); stroke-width: 0.49009761; stroke-dasharray: none; stroke-linecap: butt; stroke-dashoffset: 0; stroke-linejoin: miter; stroke-miterlimit: 4; fill: rgb(226,226,226); fill-rule: nonzero; opacity: 1; visibility: hidden;" vector-effect="non-scaling-stroke"  transform=" translate(-230.84, -888.81)" d="M 240.18692 888.81079 C 240.18692 894.4884839650109 236.00266505354486 899.09116433 230.84112499999998 899.09116433 C 225.67958494645512 899.09116433 221.49533 894.4884839650109 221.49533 888.81079 C 221.49533 883.1330960349891 225.67958494645512 878.53041567 230.84112499999998 878.53041567 C 236.00266505354486 878.53041567 240.18692 883.1330960349891 240.18692 888.81079 z" stroke-linecap="round" />
</g>
<g transform="matrix(0.78 0 0 0.71 763.49 351.45)" id="path3049"  >
<path style="stroke: rgb(0,255,0); stroke-width: 0.49009761; stroke-dasharray: none; stroke-linecap: butt; stroke-dashoffset: 0; stroke-linejoin: miter; stroke-miterlimit: 4; fill: rgb(226,226,226); fill-rule: nonzero; opacity: 1; visibility: hidden;" vector-effect="non-scaling-stroke"  transform=" translate(-230.84, -888.81)" d="M 240.18692 888.81079 C 240.18692 894.4884839650109 236.00266505354486 899.09116433 230.84112499999998 899.09116433 C 225.67958494645512 899.09116433 221.49533 894.4884839650109 221.49533 888.81079 C 221.49533 883.1330960349891 225.67958494645512 878.53041567 230.84112499999998 878.53041567 C 236.00266505354486 878.53041567 240.18692 883.1330960349891 240.18692 888.81079 z" stroke-linecap="round" />
</g>
<g transform="matrix(0.78 0 0 0.71 540 140.52)" id="path3053"  >
<path style="stroke: rgb(0,255,0); stroke-width: 0.49009761; stroke-dasharray: none; stroke-linecap: butt; stroke-dashoffset: 0; stroke-linejoin: miter; stroke-miterlimit: 4; fill: rgb(226,226,226); fill-rule: nonzero; opacity: 1; visibility: hidden;" vector-effect="non-scaling-stroke"  transform=" translate(-230.84, -888.81)" d="M 240.18692 888.81079 C 240.18692 894.4884839650109 236.00266505354486 899.09116433 230.84112499999998 899.09116433 C 225.67958494645512 899.09116433 221.49533 894.4884839650109 221.49533 888.81079 C 221.49533 883.1330960349891 225.67958494645512 878.53041567 230.84112499999998 878.53041567 C 236.00266505354486 878.53041567 240.18692 883.1330960349891 240.18692 888.81079 z" stroke-linecap="round" />
</g>
<g transform="matrix(1.04 0 0 1.04 540 540)" id="path3023"  >
<path style="stroke: rgb(0,0,255); stroke-width: 0.35433072; stroke-dasharray: none; stroke-linecap: butt; stroke-dashoffset: 0; stroke-linejoin: miter; stroke-miterlimit: 4; fill: rgb(226,226,226); fill-rule: nonzero; opacity: 1; visibility: hidden;" vector-effect="non-scaling-stroke"  transform=" translate(-373.44, -529.95)" d="M 373.5 87.375 L 254 289.875 L 266.21875 310.59375 L 122.40625 331 L 373.4375 972.53125 L 624.46875 331 L 480.78125 310.59375 L 493 289.875 L 373.5 87.375 Z" stroke-linecap="round" />
</g>
<g transform="matrix(1.04 0 0 1.04 540 935.27)" id="path3209"  >
<circle style="stroke: rgb(0,255,0); stroke-width: 0.35433072; stroke-dasharray: none; stroke-linecap: butt; stroke-dashoffset: 0; stroke-linejoin: miter; stroke-miterlimit: 4; fill: rgb(226,226,226); fill-rule: nonzero; opacity: 1; visibility: hidden;" vector-effect="non-scaling-stroke"  cx="0" cy="0" r="7.0866141" />
</g>
<g transform="matrix(1.04 0 0 1.04 314.58 351.45)" id="path3211"  >
<circle style="stroke: rgb(0,255,0); stroke-width: 0.35433072; stroke-dasharray: none; stroke-linecap: butt; stroke-dashoffset: 0; stroke-linejoin: miter; stroke-miterlimit: 4; fill: rgb(226,226,226); fill-rule: nonzero; opacity: 1; visibility: hidden;" vector-effect="non-scaling-stroke"  cx="0" cy="0" r="7.0866141" />
</g>
<g transform="matrix(1.04 0 0 1.04 763.49 351.45)" id="path3213"  >
<circle style="stroke: rgb(0,255,0); stroke-width: 0.35433072; stroke-dasharray: none; stroke-linecap: butt; stroke-dashoffset: 0; stroke-linejoin: miter; stroke-miterlimit: 4; fill: rgb(226,226,226); fill-rule: nonzero; opacity: 1; visibility: hidden;" vector-effect="non-scaling-stroke"  cx="0" cy="0" r="7.0866141" />
</g>
<g transform="matrix(1.04 0 0 1.04 540 454.7)" id="path3215"  >
<circle style="stroke: rgb(0,255,0); stroke-width: 0.35433072; stroke-dasharray: none; stroke-linecap: butt; stroke-dashoffset: 0; stroke-linejoin: miter; stroke-miterlimit: 4; fill: rgb(226,226,226); fill-rule: nonzero; opacity: 1; visibility: hidden;" vector-effect="non-scaling-stroke"  cx="0" cy="0" r="7.0866141" />
</g>
<g transform="matrix(1.04 0 0 1.04 540 140.52)" id="path3217"  >
<circle style="stroke: rgb(0,255,0); stroke-width: 0.35433072; stroke-dasharray: none; stroke-linecap: butt; stroke-dashoffset: 0; stroke-linejoin: miter; stroke-miterlimit: 4; fill: rgb(226,226,226); fill-rule: nonzero; opacity: 1; visibility: hidden;" vector-effect="non-scaling-stroke"  cx="0" cy="0" r="7.0866141" />
</g>
<g transform="matrix(1.04 0 0 1.04 541.71 536.64)" id="path3904"  >
<path style="stroke: rgb(0,0,255); stroke-width: 0.35433072; stroke-dasharray: none; stroke-linecap: butt; stroke-dashoffset: 0; stroke-linejoin: miter; stroke-miterlimit: 4; fill: rgb(226,226,226); fill-rule: nonzero; opacity: 1; visibility: hidden;" vector-effect="non-scaling-stroke"  transform=" translate(-375.09, -526.71)" d="M 373.5 149.78383 L 454.47727 292.76059 L 437.84168 333.41787 L 585.23115 354.45248 L 373.4375 903.64024 L 164.94964 356.10537 L 303.92846 336.11932 L 292.1405 290.1702 Z" stroke-linecap="round" />
</g>
<g transform="matrix(1.04 0 0 1.04 540 454.7)" id="circle7799"  >
<circle style="stroke: rgb(0,255,0); stroke-width: 0.35433072; stroke-dasharray: none; stroke-linecap: butt; stroke-dashoffset: 0; stroke-linejoin: miter; stroke-miterlimit: 4; fill: rgb(226,226,226); fill-rule: nonzero; opacity: 1; visibility: hidden;" vector-effect="non-scaling-stroke"  cx="0" cy="0" r="7.0866141" />
</g>
<g transform="matrix(1.04 0 0 1.04 540 540)" id="path3113"  >
<path style="stroke: rgb(62,184,22); stroke-width: 28; stroke-dasharray: none; stroke-linecap: butt; stroke-dashoffset: 0; stroke-linejoin: miter; stroke-miterlimit: 4; fill: rgb(62,184,22); fill-rule: nonzero; opacity: 1;" vector-effect="non-scaling-stroke"  transform=" translate(-373.44, -529.95)" d="M 373.5 87.375 L 254 289.875 L 266.21875 310.59375 L 122.40625 331 L 373.4375 972.53125 L 624.46875 331 L 480.78125 310.59375 L 493 289.875 Z M 373.5 149.78383 L 454.47727 292.76059 L 437.84168 333.41787 L 585.23115 354.45248 L 373.4375 903.64024 L 164.94964 356.10537 L 303.92846 336.11932 L 292.1405 290.1702 Z" stroke-linecap="round" />
</g>
<g transform="matrix(1.04 0 0 1.04 540 935.27)" id="ellipse4188"  >
<circle style="stroke: rgb(0,255,0); stroke-width: 0.35433072; stroke-dasharray: none; stroke-linecap: butt; stroke-dashoffset: 0; stroke-linejoin: miter; stroke-miterlimit: 4; fill: rgb(226,226,226); fill-rule: nonzero; opacity: 1;" vector-effect="non-scaling-stroke"  cx="0" cy="0" r="7.0866141" />
</g>
<g transform="matrix(1.04 0 0 1.04 314.58 351.45)" id="ellipse4190"  >
<circle style="stroke: rgb(0,255,0); stroke-width: 0.35433072; stroke-dasharray: none; stroke-linecap: butt; stroke-dashoffset: 0; stroke-linejoin: miter; stroke-miterlimit: 4; fill: rgb(226,226,226); fill-rule: nonzero; opacity: 1;" vector-effect="non-scaling-stroke"  cx="0" cy="0" r="7.0866141" />
</g>
<g transform="matrix(1.04 0 0 1.04 763.49 351.45)" id="ellipse4192"  >
<circle style="stroke: rgb(0,255,0); stroke-width: 0.35433072; stroke-dasharray: none; stroke-linecap: butt; stroke-dashoffset: 0; stroke-linejoin: miter; stroke-miterlimit: 4; fill: rgb(226,226,226); fill-rule: nonzero; opacity: 1;" vector-effect="non-scaling-stroke"  cx="0" cy="0" r="7.0866141" />
</g>
<g transform="matrix(1.04 0 0 1.04 540 140.52)" id="ellipse4196"  >
<circle style="stroke: rgb(0,255,0); stroke-width: 0.35433072; stroke-dasharray: none; stroke-linecap: butt; stroke-dashoffset: 0; stroke-linejoin: miter; stroke-miterlimit: 4; fill: rgb(226,226,226); fill-rule: nonzero; opacity: 1;" vector-effect="non-scaling-stroke"  cx="0" cy="0" r="7.0866141" />
</g>
<g transform="matrix(1.04 0 0 1.04 540 540)" id="path3036"  >
<path style="stroke: rgb(0,0,255); stroke-width: 0.35433072; stroke-dasharray: none; stroke-linecap: butt; stroke-dashoffset: 0; stroke-linejoin: miter; stroke-miterlimit: 4; fill: rgb(226,226,226); fill-rule: nonzero; opacity: 1; visibility: hidden;" vector-effect="non-scaling-stroke"  transform=" translate(-373.44, -529.95)" d="M 373.5 87.375 L 254 289.875 L 266.21875 310.59375 L 122.40625 331 L 373.4375 972.53125 L 624.46875 331 L 480.78125 310.59375 L 493 289.875 L 373.5 87.375 Z M 373.25 162.125 L 448 293.5 L 373.25 424.875 L 298.5 293.5 L 373.25 162.125 Z M 460.21875 345.4375 L 572.84375 361.9375 L 374.4375 885.375 L 176 361.9375 L 286.9375 345.6875 L 373.5 492.375 L 460.21875 345.4375 Z" stroke-linecap="round" />
</g>
<g transform="matrix(0.78 0 0 0.71 540 935.27)" id="path3118"  >
<ellipse style="stroke: rgb(0,255,0); stroke-width: 0.49009761; stroke-dasharray: none; stroke-linecap: butt; stroke-dashoffset: 0; stroke-linejoin: miter; stroke-miterlimit: 4; fill: rgb(226,226,226); fill-rule: nonzero; opacity: 1; visibility: hidden;" vector-effect="non-scaling-stroke"  cx="0" cy="0" rx="9.3457947" ry="10.280374" />
</g>
<g transform="matrix(0.78 0 0 0.71 314.58 351.45)" id="path3120"  >
<ellipse style="stroke: rgb(0,255,0); stroke-width: 0.49009761; stroke-dasharray: none; stroke-linecap: butt; stroke-dashoffset: 0; stroke-linejoin: miter; stroke-miterlimit: 4; fill: rgb(226,226,226); fill-rule: nonzero; opacity: 1; visibility: hidden;" vector-effect="non-scaling-stroke"  cx="0" cy="0" rx="9.3457947" ry="10.280374" />
</g>
<g transform="matrix(0.78 0 0 0.71 763.49 351.45)" id="path3122"  >
<ellipse style="stroke: rgb(0,255,0); stroke-width: 0.49009761; stroke-dasharray: none; stroke-linecap: butt; stroke-dashoffset: 0; stroke-linejoin: miter; stroke-miterlimit: 4; fill: rgb(226,226,226); fill-rule: nonzero; opacity: 1; visibility: hidden;" vector-effect="non-scaling-stroke"  cx="0" cy="0" rx="9.3457947" ry="10.280374" />
</g>
<g transform="matrix(0.78 0 0 0.71 540 454.7)" id="path3124"  >
<ellipse style="stroke: rgb(0,255,0); stroke-width: 0.49009761; stroke-dasharray: none; stroke-linecap: butt; stroke-dashoffset: 0; stroke-linejoin: miter; stroke-miterlimit: 4; fill: rgb(226,226,226); fill-rule: nonzero; opacity: 1; visibility: hidden;" vector-effect="non-scaling-stroke"  cx="0" cy="0" rx="9.3457947" ry="10.280374" />
</g>
<g transform="matrix(0.78 0 0 0.71 540 140.52)" id="path3126"  >
<ellipse style="stroke: rgb(0,255,0); stroke-width: 0.49009761; stroke-dasharray: none; stroke-linecap: butt; stroke-dashoffset: 0; stroke-linejoin: miter; stroke-miterlimit: 4; fill: rgb(226,226,226); fill-rule: nonzero; opacity: 1; visibility: hidden;" vector-effect="non-scaling-stroke"  cx="0" cy="0" rx="9.3457947" ry="10.280374" />
</g>
<g transform="matrix(1 0 0 1 50 50)"  >
<rect style="stroke: none; stroke-width: 1; stroke-dasharray: none; stroke-linecap: butt; stroke-dashoffset: 0; stroke-linejoin: miter; stroke-miterlimit: 4; fill: rgb(255,255,255); fill-opacity: 0; fill-rule: nonzero; opacity: 1;" vector-effect="non-scaling-stroke"  x="-50" y="-50" rx="0" ry="0" width="100" height="100" />
</g>
<g transform="matrix(1 0 0 1 540 540)"  >
<rect style="stroke: none; stroke-width: 1; stroke-dasharray: none; stroke-linecap: butt; stroke-dashoffset: 0; stroke-linejoin: miter; stroke-miterlimit: 4; fill: rgb(255,255,255); fill-rule: nonzero; opacity: 1; visibility: hidden;" vector-effect="non-scaling-stroke"  x="-540" y="-540" rx="0" ry="0" width="1080" height="1080" />
</g>
<g transform="matrix(NaN NaN NaN NaN 0 0)"  >
<g style=""   >
</g>
</g>
<g transform="matrix(NaN NaN NaN NaN 0 0)"  >
<g style=""   >
</g>
</g>
<g transform="matrix(NaN NaN NaN NaN 0 0)"  >
<g style=""   >
</g>
</g>
<g transform="matrix(NaN NaN NaN NaN 0 0)"  >
<g style=""   >
</g>
</g>
</svg>