<?xml version="1.0" encoding="UTF-8" standalone="no" ?>
<!DOCTYPE svg PUBLIC "-//W3C//DTD SVG 1.1//EN" "http://www.w3.org/Graphics/SVG/1.1/DTD/svg11.dtd">
<svg xmlns="http://www.w3.org/2000/svg" xmlns:xlink="http://www.w3.org/1999/xlink" version="1.1" width="1080" height="1080" viewBox="0 0 1080 1080" xml:space="preserve">
<desc>Created with Fabric.js 5.2.4</desc>
<defs>
</defs>
<rect x="0" y="0" width="100%" height="100%" fill="transparent"></rect>
<g transform="matrix(1 0 0 1 540 540)" id="c5256500-b2f9-4fa7-9d56-45d17034a327"  >
</g>
<g transform="matrix(1 0 0 1 540 540)" id="a1f7950a-bac4-468b-9d29-7dbcb4e431ec"  >
<rect style="stroke: none; stroke-width: 1; stroke-dasharray: none; stroke-linecap: butt; stroke-dashoffset: 0; stroke-linejoin: miter; stroke-miterlimit: 4; fill: rgb(255,255,255); fill-rule: nonzero; opacity: 1; visibility: hidden;" vector-effect="non-scaling-stroke"  x="-540" y="-540" rx="0" ry="0" width="1080" height="1080" />
</g>
<g transform="matrix(22.34 0 0 22.34 539.97 539.9)"  >
<g style="" vector-effect="non-scaling-stroke"   >
		<g transform="matrix(1 0 0 1 0 -9.5)"  >
<path style="stroke: none; stroke-width: 1; stroke-dasharray: none; stroke-linecap: butt; stroke-dashoffset: 0; stroke-linejoin: miter; stroke-miterlimit: 4; fill: rgb(62,184,22); fill-rule: nonzero; opacity: 1;" vector-effect="non-scaling-stroke"  transform=" translate(-16, -6.5)" d="M 27 0 L 5 0 C 3.6589067042435683 -0.05109151481301586 2.3572353850033365 0.45926722362194217 1.408251304312639 1.40825130431264 C 0.45926722362194106 2.357235385003338 -0.05109151481301666 3.6589067042435675 0 4.999999999999999 L 0 12 C 0 12.552284749830793 0.44771525016920655 13 1 13 L 11 13 C 11.552284749830793 13 12 12.552284749830793 12 12 L 12 7 L 20 7 L 20 12 C 20 12.552284749830793 20.447715250169207 13 21 13 L 31 13 C 31.552284749830793 13 32 12.552284749830793 32 12 L 32 5 C 32.05109151481302 3.6589067042435675 31.540732776378057 2.357235385003337 30.59174869568736 1.408251304312639 C 29.64276461499666 0.45926722362194106 28.34109329575643 -0.05109151481301666 27 0 Z M 30 11 L 22 11 L 22 7 C 22 5.8954305003384135 21.104569499661586 5 20 5 L 12 5 C 10.895430500338414 5 10 5.8954305003384135 10 7 L 10 11 L 2 11 L 2 5 C 1.9562113189387478 4.191720265667038 2.258194370155697 3.4029507438199356 2.830572556987816 2.8305725569878164 C 3.402950743819935 2.2581943701556972 4.191720265667037 1.9562113189387471 5 1.9999999999999996 L 27 2 C 27.808279734332963 1.9562113189387473 28.597049256180064 2.258194370155697 29.169427443012182 2.830572556987816 C 29.741805629844304 3.402950743819935 30.04378868106125 4.191720265667037 30 5 Z" stroke-linecap="round" />
</g>
		<g transform="matrix(1 0 0 1 0 7.5)"  >
<path style="stroke: none; stroke-width: 1; stroke-dasharray: none; stroke-linecap: butt; stroke-dashoffset: 0; stroke-linejoin: miter; stroke-miterlimit: 4; fill: rgb(62,184,22); fill-rule: nonzero; opacity: 1;" vector-effect="non-scaling-stroke"  transform=" translate(-16, -23.5)" d="M 28 29 C 28 29.552284749830793 27.552284749830793 30 27 30 L 5 30 C 4.447715250169207 30 4 29.552284749830793 4 29 L 4 15 L 2 15 L 2 29 C 2 30.65685424949238 3.3431457505076194 32 5 32 L 27 32 C 28.65685424949238 32 30 30.65685424949238 30 29 L 30 15 L 28 15 Z" stroke-linecap="round" />
</g>
		<g transform="matrix(1 0 0 1 -7 2)"  >
<rect style="stroke: none; stroke-width: 1; stroke-dasharray: none; stroke-linecap: butt; stroke-dashoffset: 0; stroke-linejoin: miter; stroke-miterlimit: 4; fill: rgb(62,184,22); fill-rule: nonzero; opacity: 1;" vector-effect="non-scaling-stroke"  x="-2" y="-2" rx="1" ry="1" width="4" height="4" />
</g>
		<g transform="matrix(1 0 0 1 0 2)"  >
<rect style="stroke: none; stroke-width: 1; stroke-dasharray: none; stroke-linecap: butt; stroke-dashoffset: 0; stroke-linejoin: miter; stroke-miterlimit: 4; fill: rgb(62,184,22); fill-rule: nonzero; opacity: 1;" vector-effect="non-scaling-stroke"  x="-2" y="-2" rx="1" ry="1" width="4" height="4" />
</g>
		<g transform="matrix(1 0 0 1 7 2)"  >
<rect style="stroke: none; stroke-width: 1; stroke-dasharray: none; stroke-linecap: butt; stroke-dashoffset: 0; stroke-linejoin: miter; stroke-miterlimit: 4; fill: rgb(62,184,22); fill-rule: nonzero; opacity: 1;" vector-effect="non-scaling-stroke"  x="-2" y="-2" rx="1" ry="1" width="4" height="4" />
</g>
		<g transform="matrix(1 0 0 1 -7 9)"  >
<rect style="stroke: none; stroke-width: 1; stroke-dasharray: none; stroke-linecap: butt; stroke-dashoffset: 0; stroke-linejoin: miter; stroke-miterlimit: 4; fill: rgb(62,184,22); fill-rule: nonzero; opacity: 1;" vector-effect="non-scaling-stroke"  x="-2" y="-2" rx="1" ry="1" width="4" height="4" />
</g>
		<g transform="matrix(1 0 0 1 0 9)"  >
<rect style="stroke: none; stroke-width: 1; stroke-dasharray: none; stroke-linecap: butt; stroke-dashoffset: 0; stroke-linejoin: miter; stroke-miterlimit: 4; fill: rgb(62,184,22); fill-rule: nonzero; opacity: 1;" vector-effect="non-scaling-stroke"  x="-2" y="-2" rx="1" ry="1" width="4" height="4" />
</g>
		<g transform="matrix(1 0 0 1 7 9)"  >
<rect style="stroke: none; stroke-width: 1; stroke-dasharray: none; stroke-linecap: butt; stroke-dashoffset: 0; stroke-linejoin: miter; stroke-miterlimit: 4; fill: rgb(62,184,22); fill-rule: nonzero; opacity: 1;" vector-effect="non-scaling-stroke"  x="-2" y="-2" rx="1" ry="1" width="4" height="4" />
</g>
</g>
</g>
<g transform="matrix(1 0 0 1 50 50)"  >
<rect style="stroke: none; stroke-width: 1; stroke-dasharray: none; stroke-linecap: butt; stroke-dashoffset: 0; stroke-linejoin: miter; stroke-miterlimit: 4; fill: rgb(255,255,255); fill-opacity: 0; fill-rule: nonzero; opacity: 1;" vector-effect="non-scaling-stroke"  x="-50" y="-50" rx="0" ry="0" width="100" height="100" />
</g>
<g transform="matrix(1 0 0 1 540 540)"  >
<rect style="stroke: none; stroke-width: 1; stroke-dasharray: none; stroke-linecap: butt; stroke-dashoffset: 0; stroke-linejoin: miter; stroke-miterlimit: 4; fill: rgb(255,255,255); fill-rule: nonzero; opacity: 1; visibility: hidden;" vector-effect="non-scaling-stroke"  x="-540" y="-540" rx="0" ry="0" width="1080" height="1080" />
</g>
<g transform="matrix(1 0 0 1 50 50)"  >
<rect style="stroke: none; stroke-width: 1; stroke-dasharray: none; stroke-linecap: butt; stroke-dashoffset: 0; stroke-linejoin: miter; stroke-miterlimit: 4; fill: rgb(255,255,255); fill-opacity: 0; fill-rule: nonzero; opacity: 1;" vector-effect="non-scaling-stroke"  x="-50" y="-50" rx="0" ry="0" width="100" height="100" />
</g>
<g transform="matrix(1 0 0 1 540 540)"  >
<rect style="stroke: none; stroke-width: 1; stroke-dasharray: none; stroke-linecap: butt; stroke-dashoffset: 0; stroke-linejoin: miter; stroke-miterlimit: 4; fill: rgb(255,255,255); fill-rule: nonzero; opacity: 1; visibility: hidden;" vector-effect="non-scaling-stroke"  x="-540" y="-540" rx="0" ry="0" width="1080" height="1080" />
</g>
<g transform="matrix(NaN NaN NaN NaN 0 0)"  >
<g style=""   >
</g>
</g>
<g transform="matrix(NaN NaN NaN NaN 0 0)"  >
<g style=""   >
</g>
</g>
<g transform="matrix(NaN NaN NaN NaN 0 0)"  >
<g style=""   >
</g>
</g>
<g transform="matrix(NaN NaN NaN NaN 0 0)"  >
<g style=""   >
</g>
</g>
<g transform="matrix(NaN NaN NaN NaN 0 0)"  >
<g style=""   >
</g>
</g>
<g transform="matrix(NaN NaN NaN NaN 0 0)"  >
<g style=""   >
</g>
</g>
<g transform="matrix(NaN NaN NaN NaN 0 0)"  >
<g style=""   >
</g>
</g>
<g transform="matrix(NaN NaN NaN NaN 0 0)"  >
<g style=""   >
</g>
</g>
</svg>