<?xml version="1.0" encoding="UTF-8" standalone="no" ?>
<!DOCTYPE svg PUBLIC "-//W3C//DTD SVG 1.1//EN" "http://www.w3.org/Graphics/SVG/1.1/DTD/svg11.dtd">
<svg xmlns="http://www.w3.org/2000/svg" xmlns:xlink="http://www.w3.org/1999/xlink" version="1.1" width="1080" height="1080" viewBox="0 0 1080 1080" xml:space="preserve">
<desc>Created with Fabric.js 5.2.4</desc>
<defs>
</defs>
<g transform="matrix(1 0 0 1 540 540)" id="a5c1b5c5-e03d-4531-abc4-992e47ac2af2"  >
<rect style="stroke: none; stroke-width: 1; stroke-dasharray: none; stroke-linecap: butt; stroke-dashoffset: 0; stroke-linejoin: miter; stroke-miterlimit: 4; fill: rgb(255,255,255); fill-rule: nonzero; opacity: 1; visibility: hidden;" vector-effect="non-scaling-stroke"  x="-540" y="-540" rx="0" ry="0" width="1080" height="1080" />
</g>
<g transform="matrix(1 0 0 1 540 540)" id="0a097e1e-583e-4740-a713-0ddd68f36044"  >
</g>
<g transform="matrix(1 0 0 1 50 50)"  >
<rect style="stroke: none; stroke-width: 1; stroke-dasharray: none; stroke-linecap: butt; stroke-dashoffset: 0; stroke-linejoin: miter; stroke-miterlimit: 4; fill: rgb(255,255,255); fill-opacity: 0; fill-rule: nonzero; opacity: 1;" vector-effect="non-scaling-stroke"  x="-50" y="-50" rx="0" ry="0" width="100" height="100" />
</g>
<g transform="matrix(1 0 0 1 540 540)"  >
<rect style="stroke: none; stroke-width: 1; stroke-dasharray: none; stroke-linecap: butt; stroke-dashoffset: 0; stroke-linejoin: miter; stroke-miterlimit: 4; fill: rgb(255,255,255); fill-rule: nonzero; opacity: 1; visibility: hidden;" vector-effect="non-scaling-stroke"  x="-540" y="-540" rx="0" ry="0" width="1080" height="1080" />
</g>
<g transform="matrix(1 0 0 1 540 540)"  >
<rect style="stroke: none; stroke-width: 1; stroke-dasharray: none; stroke-linecap: butt; stroke-dashoffset: 0; stroke-linejoin: miter; stroke-miterlimit: 4; fill: rgb(255,255,255); fill-rule: nonzero; opacity: 1; visibility: hidden;" vector-effect="non-scaling-stroke"  x="-540" y="-540" rx="0" ry="0" width="1080" height="1080" />
</g>
<g transform="matrix(1 0 0 1 540 540)"  >
<rect style="stroke: none; stroke-width: 1; stroke-dasharray: none; stroke-linecap: butt; stroke-dashoffset: 0; stroke-linejoin: miter; stroke-miterlimit: 4; fill: rgb(255,255,255); fill-rule: nonzero; opacity: 1; visibility: hidden;" vector-effect="non-scaling-stroke"  x="-540" y="-540" rx="0" ry="0" width="1080" height="1080" />
</g>
<g transform="matrix(0 0 0 0 0 0)"  >
<g style=""   >
</g>
</g>
<g transform="matrix(26.6 -6.38 6.38 26.6 540 540)"  >
<path style="stroke: none; stroke-width: 1; stroke-dasharray: none; stroke-linecap: round; stroke-dashoffset: 0; stroke-linejoin: round; stroke-miterlimit: 10; fill: rgb(189,214,185); fill-rule: evenodd; opacity: 1;" vector-effect="non-scaling-stroke"  transform=" translate(-12, -12)" d="M 19.071068 4.9289322 C 15.19933 1.0571947000000002 8.8006697 1.0571947000000002 4.9289322 4.9289322 C 1.0571945 8.8006699 1.0571947000000002 15.19933 4.9289322 19.071068 C 8.8006699 22.942806 15.19933 22.942806 19.071068 19.071068 C 22.942805 15.19933 22.942806 8.8006699 19.071068 4.9289322 z M 17.938592 5.9177772 L 18.082223 6.0614075 C 18.434148 6.413332499999999 18.434146 6.9800679 18.082223 7.3319904 L 15.817271999999999 9.5969418 C 15.465349 9.9488643 14.898613 9.948865699999999 14.546688999999999 9.5969414 L 14.403058999999999 9.4533111 C 14.051134 9.1013862 14.051136 8.534650800000001 14.403058 8.1827282 L 16.66801 5.9177768 C 17.019931999999997 5.565854300000001 17.586668 5.565853000000001 17.938592 5.917777200000001 z M 13.414214000000001 10.585785999999999 C 14.228767000000001 11.400339999999998 14.228767000000001 12.599659999999998 13.414214000000001 13.414214 C 12.599660000000002 14.228767 11.400340000000002 14.228767 10.585786 13.414214 C 9.7712334 12.59966 9.7712334 11.40034 10.585786 10.585785999999999 C 11.40034 9.771233399999998 12.59966 9.771233399999998 13.414214000000001 10.585785999999999 z M 7.3319904 5.9177768 L 9.5969418 8.1827282 C 9.9488643 8.5346508 9.9488642 9.1013883 9.5969414 9.4533111 L 9.4533111 9.5969414 C 9.1013883 9.948864200000001 8.534650800000001 9.9488643 8.1827282 9.5969418 L 5.9177768 7.3319904 C 5.5658543 6.9800679 5.5658544 6.4133303 5.9177772 6.0614075 L 6.0614075 5.9177772 C 6.413330299999999 5.5658544 6.9800679 5.5658543 7.3319904 5.9177767999999995 z M 15.817271999999999 14.403059 L 18.082223 16.668009 C 18.434146 17.019932 18.434146 17.586669 18.082223 17.938592 L 17.938592 18.082223 C 17.586669 18.434146 17.019932 18.434146 16.668009 18.082223 L 14.403059000000002 15.817271999999999 C 14.051136000000003 15.465349 14.051135000000002 14.898612 14.403059000000002 14.546688999999999 L 14.546689000000002 14.403058999999999 C 14.898612000000002 14.051134999999999 15.465349000000003 14.051136 15.817272000000003 14.403058999999999 z M 9.453311099999999 14.403059 L 9.596941399999999 14.546689 C 9.948865699999999 14.898613000000001 9.9488642 15.465349 9.596941399999999 15.817272 L 7.331990699999999 18.082223 C 6.980067899999999 18.434146 6.413331799999999 18.434147 6.061407499999999 18.082223 L 5.9177772 17.938592 C 5.565853 17.586668 5.5658544 17.019932 5.9177772 16.668009 L 8.1827279 14.403059000000002 C 8.5346507 14.051136000000003 9.1013869 14.051134000000003 9.4533111 14.403059000000002 z" stroke-linecap="round" />
</g>
<g transform="matrix(0 0 0 0 0 0)"  >
<g style=""   >
</g>
</g>
<g transform="matrix(42.32 0 0 42.32 539.99 539.99)"  >
<path style="stroke: rgb(0,0,0); stroke-width: 0; stroke-dasharray: none; stroke-linecap: butt; stroke-dashoffset: 0; stroke-linejoin: miter; stroke-miterlimit: 4; fill: rgb(226,226,226); fill-rule: nonzero; opacity: 1;" vector-effect="non-scaling-stroke"  transform=" translate(-12, -12)" d="M 3 4 L 3 9 L 5 9 L 5 5 L 9 5 L 9 3 L 4 3 C 3.4477152501692068 3 3 3.4477152501692068 3 4 z M 21 9 L 21 4 C 21 3.4477152501692068 20.552284749830793 3 20 3 L 15 3 L 15 5 L 19 5 L 19 9 L 21 9 z M 19 19 L 15 19 L 15 21 L 20 21 C 20.552284749830793 21 21 20.552284749830793 21 20 L 21 15 L 19 15 L 19 19 z M 9 21 L 9 19 L 5 19 L 5 15 L 3 15 L 3 20 C 3 20.552284749830793 3.4477152501692068 21 4 21 L 9 21 z M 2 11 L 22 11 L 22 13 L 2 13 z" stroke-linecap="round" />
</g>
</svg>