<?xml version="1.0" encoding="UTF-8" standalone="no" ?>
<!DOCTYPE svg PUBLIC "-//W3C//DTD SVG 1.1//EN" "http://www.w3.org/Graphics/SVG/1.1/DTD/svg11.dtd">
<svg xmlns="http://www.w3.org/2000/svg" xmlns:xlink="http://www.w3.org/1999/xlink" version="1.1" width="1080" height="1080" viewBox="0 0 1080 1080" xml:space="preserve">
<desc>Created with Fabric.js 5.2.4</desc>
<defs>
</defs>
<rect x="0" y="0" width="100%" height="100%" fill="transparent"></rect>
<g transform="matrix(1 0 0 1 540 540)" id="a1f7950a-bac4-468b-9d29-7dbcb4e431ec"  >
<rect style="stroke: none; stroke-width: 1; stroke-dasharray: none; stroke-linecap: butt; stroke-dashoffset: 0; stroke-linejoin: miter; stroke-miterlimit: 4; fill: rgb(255,255,255); fill-rule: nonzero; opacity: 1; visibility: hidden;" vector-effect="non-scaling-stroke"  x="-540" y="-540" rx="0" ry="0" width="1080" height="1080" />
</g>
<g transform="matrix(1 0 0 1 540 540)" id="c5256500-b2f9-4fa7-9d56-45d17034a327"  >
</g>
<g transform="matrix(1.67 0 0 1.67 539.78 539.6)"  >
<path style="stroke: none; stroke-width: 1; stroke-dasharray: none; stroke-linecap: butt; stroke-dashoffset: 0; stroke-linejoin: miter; stroke-miterlimit: 4; fill: rgb(226,226,226); fill-rule: nonzero; opacity: 1;" vector-effect="non-scaling-stroke"  transform=" translate(-256, -256)" d="M 336 0 L 176 0 C 140.65377601082923 0 112 28.65377601082922 112 64 L 112 448 C 112 483.34622398917077 140.65377601082923 512 176 512 L 336 512 C 371.34622398917077 512 400 483.34622398917077 400 448 L 400 64 C 400 28.65377601082922 371.34622398917077 0 336 0 Z M 368 448 C 368 465.6731119945854 353.6731119945854 480 336 480 L 176 480 C 158.32688800541462 480 144 465.6731119945854 144 448 L 144 64 C 144 46.32688800541461 158.32688800541462 32 176 32 L 187.35 32 C 190.5120901440907 31.98846157905545 193.37960106245617 33.854307724567214 194.65 36.75 C 199.72753364357533 48.43838509359088 211.25638614884457 55.99989823588842 224 56 L 288 56 C 300.74361385115543 55.99989823588843 312.27246635642473 48.43838509359088 317.35 36.75 C 318.6203989375439 33.85430772456722 321.4879098559093 31.98846157905545 324.65000000000003 32 L 336 32 C 353.6731119945854 32 368 46.3268880054146 368 63.99999999999999 Z" stroke-linecap="round" />
</g>
<g transform="matrix(1.67 0 0 1.67 539.78 539.6)"  >
<path style="stroke: none; stroke-width: 1; stroke-dasharray: none; stroke-linecap: butt; stroke-dashoffset: 0; stroke-linejoin: miter; stroke-miterlimit: 4; fill: rgb(226,226,226); fill-rule: nonzero; opacity: 1;" vector-effect="non-scaling-stroke"  transform=" translate(-256, -256)" d="M 336 0 L 176 0 C 140.65377601082923 0 112 28.65377601082922 112 64 L 112 448 C 112 483.34622398917077 140.65377601082923 512 176 512 L 336 512 C 371.34622398917077 512 400 483.34622398917077 400 448 L 400 64 C 400 28.65377601082922 371.34622398917077 0 336 0 Z M 368 448 C 368 465.6731119945854 353.6731119945854 480 336 480 L 176 480 C 158.32688800541462 480 144 465.6731119945854 144 448 L 144 64 C 144 46.32688800541461 158.32688800541462 32 176 32 L 187.35 32 C 190.5120901440907 31.98846157905545 193.37960106245617 33.854307724567214 194.65 36.75 C 199.72753364357533 48.43838509359088 211.25638614884457 55.99989823588842 224 56 L 288 56 C 300.74361385115543 55.99989823588843 312.27246635642473 48.43838509359088 317.35 36.75 C 318.6203989375439 33.85430772456722 321.4879098559093 31.98846157905545 324.65000000000003 32 L 336 32 C 353.6731119945854 32 368 46.3268880054146 368 63.99999999999999 Z" stroke-linecap="round" />
</g>
<g transform="matrix(1.67 0 0 1.67 539.85 539.67)"  >
<path style="stroke: none; stroke-width: 1; stroke-dasharray: none; stroke-linecap: butt; stroke-dashoffset: 0; stroke-linejoin: miter; stroke-miterlimit: 4; fill: rgb(226,226,226); fill-rule: nonzero; opacity: 0.07;" vector-effect="non-scaling-stroke"  transform=" translate(-256, -256)" d="M 336 48 L 336 48 C 332.262429200078 47.97714355081574 328.7320207309082 49.71456387824558 326.47 52.690000000000005 C 317.4132961424369 64.83787072172306 303.1523804356947 71.99613124413509 288 72 L 224 72 C 208.8476195643053 71.99613124413509 194.58670385756315 64.83787072172305 185.53 52.69 C 183.26797926909185 49.71456387824556 179.73757079992205 47.977143550815725 176 48 L 176 48 C 167.1634440027073 48 160 55.16344400270731 160 64 L 160 448 C 160 456.8365559972927 167.1634440027073 464 176 464 L 336 464 C 344.8365559972927 464 352 456.8365559972927 352 448 L 352 64 C 352 55.16344400270731 344.8365559972927 48 336 48 Z" stroke-linecap="round" />
</g>
</svg>