<?xml version="1.0" encoding="UTF-8" standalone="no" ?>
<!DOCTYPE svg PUBLIC "-//W3C//DTD SVG 1.1//EN" "http://www.w3.org/Graphics/SVG/1.1/DTD/svg11.dtd">
<svg xmlns="http://www.w3.org/2000/svg" xmlns:xlink="http://www.w3.org/1999/xlink" version="1.1" width="1080" height="1080" viewBox="0 0 1080 1080" xml:space="preserve">
<desc>Created with Fabric.js 5.2.4</desc>
<defs>
</defs>
<rect x="0" y="0" width="100%" height="100%" fill="transparent"></rect>
<g transform="matrix(1 0 0 1 540 540)" id="f3f0909c-ccb0-4752-99a4-7263b1ae7739"  >
<rect style="stroke: none; stroke-width: 1; stroke-dasharray: none; stroke-linecap: butt; stroke-dashoffset: 0; stroke-linejoin: miter; stroke-miterlimit: 4; fill: rgb(255,255,255); fill-rule: nonzero; opacity: 1; visibility: hidden;" vector-effect="non-scaling-stroke"  x="-540" y="-540" rx="0" ry="0" width="1080" height="1080" />
</g>
<g transform="matrix(1 0 0 1 540 540)" id="c353226f-761b-4454-97d6-6e77c502d5e2"  >
</g>
<g transform="matrix(1 0 0 1 50 50)"  >
<rect style="stroke: none; stroke-width: 1; stroke-dasharray: none; stroke-linecap: butt; stroke-dashoffset: 0; stroke-linejoin: miter; stroke-miterlimit: 4; fill: rgb(255,255,255); fill-opacity: 0; fill-rule: nonzero; opacity: 1;" vector-effect="non-scaling-stroke"  x="-50" y="-50" rx="0" ry="0" width="100" height="100" />
</g>
<g transform="matrix(1 0 0 1 540 540)"  >
<rect style="stroke: none; stroke-width: 1; stroke-dasharray: none; stroke-linecap: butt; stroke-dashoffset: 0; stroke-linejoin: miter; stroke-miterlimit: 4; fill: rgb(255,255,255); fill-rule: nonzero; opacity: 1; visibility: hidden;" vector-effect="non-scaling-stroke"  x="-540" y="-540" rx="0" ry="0" width="1080" height="1080" />
</g>
<g transform="matrix(NaN NaN NaN NaN 0 0)"  >
<g style=""   >
</g>
</g>
<g transform="matrix(NaN NaN NaN NaN 0 0)"  >
<g style=""   >
</g>
</g>
<g transform="matrix(47.4 0 0 47.4 540 540)"  >
<g style="" vector-effect="non-scaling-stroke"   >
		<g transform="matrix(1 0 0 1 4.63 -0.2)"  >
<path style="stroke: none; stroke-width: 1; stroke-dasharray: none; stroke-linecap: butt; stroke-dashoffset: 0; stroke-linejoin: miter; stroke-miterlimit: 4; fill: rgb(226,226,226); fill-rule: nonzero; opacity: 1;" vector-effect="non-scaling-stroke"  transform=" translate(-16.63, -11.64)" d="M 21.8 4.5 C 21.5 3.8 20.900000000000002 3.2 20.2 2.9 C 18.7 2.3 17 3 16.3 4.4 L 11.700000000000001 14.700000000000001 C 11.3 15.600000000000001 11.200000000000001 16.700000000000003 11.3 17.6 L 11.700000000000001 19.8 C 11.8 20.1 12.000000000000002 20.400000000000002 12.3 20.5 C 12.4 20.6 12.600000000000001 20.6 12.700000000000001 20.6 C 12.9 20.6 13.100000000000001 20.5 13.200000000000001 20.400000000000002 L 15.100000000000001 19.200000000000003 C 16 18.6 16.6 17.900000000000002 17 16.900000000000002 L 21.6 6.600000000000001 C 22.1 6 22.1 5.2 21.8 4.5 z M 15.4 16.3 C 15.1 16.900000000000002 14.700000000000001 17.3 14.200000000000001 17.7 L 13.500000000000002 18.099999999999998 L 13.400000000000002 17.4 C 13.300000000000002 16.799999999999997 13.400000000000002 16.2 13.600000000000001 15.599999999999998 L 17.1 7.599999999999998 L 18.900000000000002 8.299999999999997 L 15.4 16.3 z M 20 5.9 L 19.8 6.4 L 18 5.7 L 18.2 5.2 C 18.4 4.8 18.7 4.6000000000000005 19.099999999999998 4.6000000000000005 C 19.2 4.6000000000000005 19.4 4.6000000000000005 19.499999999999996 4.7 C 19.7 4.8 19.9 5 20 5.2 C 20 5.2 20 5.2 20 5.2 C 20.1 5.5 20.1 5.7 20 5.9 z" stroke-linecap="round" />
</g>
		<g transform="matrix(1 0 0 1 -7 4.16)"  >
<path style="stroke: none; stroke-width: 1; stroke-dasharray: none; stroke-linecap: butt; stroke-dashoffset: 0; stroke-linejoin: miter; stroke-miterlimit: 4; fill: rgb(226,226,226); fill-rule: nonzero; opacity: 1;" vector-effect="non-scaling-stroke"  transform=" translate(-5, -16)" d="M 3 17 L 7 17 C 7.6 17 8 16.6 8 16 C 8 15.399999999999999 7.6 15 7 15 L 3 15 C 2.4 15 2 15.4 2 16 C 2 16.6 2.4 17 3 17 z" stroke-linecap="round" />
</g>
		<g transform="matrix(1 0 0 1 -6 8.16)"  >
<path style="stroke: none; stroke-width: 1; stroke-dasharray: none; stroke-linecap: butt; stroke-dashoffset: 0; stroke-linejoin: miter; stroke-miterlimit: 4; fill: rgb(226,226,226); fill-rule: nonzero; opacity: 1;" vector-effect="non-scaling-stroke"  transform=" translate(-6, -20)" d="M 9 19 L 3 19 C 2.4 19 2 19.4 2 20 C 2 20.6 2.4 21 3 21 L 9 21 C 9.6 21 10 20.6 10 20 C 10 19.4 9.6 19 9 19 z" stroke-linecap="round" />
</g>
</g>
</g>
</svg>