<?xml version="1.0" encoding="UTF-8" standalone="no" ?>
<!DOCTYPE svg PUBLIC "-//W3C//DTD SVG 1.1//EN" "http://www.w3.org/Graphics/SVG/1.1/DTD/svg11.dtd">
<svg xmlns="http://www.w3.org/2000/svg" xmlns:xlink="http://www.w3.org/1999/xlink" version="1.1" width="1080" height="1080" viewBox="0 0 1080 1080" xml:space="preserve">
<desc>Created with Fabric.js 5.2.4</desc>
<defs>
</defs>
<rect x="0" y="0" width="100%" height="100%" fill="transparent"></rect>
<g transform="matrix(1 0 0 1 540 540)" id="d4ed9f5f-37c3-4056-8af1-b5f654035a17"  >
<rect style="stroke: none; stroke-width: 1; stroke-dasharray: none; stroke-linecap: butt; stroke-dashoffset: 0; stroke-linejoin: miter; stroke-miterlimit: 4; fill: rgb(255,255,255); fill-rule: nonzero; opacity: 1; visibility: hidden;" vector-effect="non-scaling-stroke"  x="-540" y="-540" rx="0" ry="0" width="1080" height="1080" />
</g>
<g transform="matrix(1 0 0 1 540 540)" id="37e83971-35e9-44e1-bff9-1e665139e55e"  >
</g>
<g transform="matrix(0.54 0 0 -0.54 408.77 540)"  >
<path style="stroke: none; stroke-width: 1; stroke-dasharray: none; stroke-linecap: butt; stroke-dashoffset: 0; stroke-linejoin: miter; stroke-miterlimit: 4; fill: rgb(226,226,226); fill-rule: nonzero; opacity: 1;" vector-effect="non-scaling-stroke"  transform=" translate(-7572.75, -1190)" d="M 6910 1841 C 6910 1836 7000 1694 7110 1526 C 7220 1358 7310 1218 7310 1215 C 7310 1212 7209 1057 7085 870 L 6861 530 L 7090 530 L 7318 530 L 7443 732 C 7512 844 7572 935 7577 935 C 7581 935 7641 844 7709 732 L 7833 530 L 8062 530 C 8243 530 8290 533 8284 543 C 8279 549 8180 701 8063 879 C 7945 1058 7851 1208 7853 1214 C 7856 1220 7944 1359 8050 1524 C 8155 1688 8244 1829 8247 1836 C 8251 1848 8215 1850 8032 1850 L 7811 1850 L 7699 1649 C 7638 1539 7584 1452 7579 1457 C 7574 1462 7522 1551 7462 1655 L 7352 1845 L 7131 1848 C 6995 1849 6910 1847 6910 1841 z" stroke-linecap="round" />
</g>
<g transform="matrix(5.05 0 0 1.18 855.59 540)" id="a5224dcd-798d-45c8-babe-274e9418efd0"  >
<rect style="stroke: rgb(0,0,0); stroke-width: 0; stroke-dasharray: none; stroke-linecap: butt; stroke-dashoffset: 0; stroke-linejoin: miter; stroke-miterlimit: 4; fill: rgb(226,226,226); fill-rule: nonzero; opacity: 1;" vector-effect="non-scaling-stroke"  x="-33.0835" y="-33.0835" rx="0" ry="0" width="66.167" height="66.167" />
</g>
</svg>