<?xml version="1.0" encoding="UTF-8" standalone="no" ?>
<!DOCTYPE svg PUBLIC "-//W3C//DTD SVG 1.1//EN" "http://www.w3.org/Graphics/SVG/1.1/DTD/svg11.dtd">
<svg xmlns="http://www.w3.org/2000/svg" xmlns:xlink="http://www.w3.org/1999/xlink" version="1.1" width="1080" height="1080" viewBox="0 0 1080 1080" xml:space="preserve">
<desc>Created with Fabric.js 5.2.4</desc>
<defs>
</defs>
<rect x="0" y="0" width="100%" height="100%" fill="transparent"></rect>
<g transform="matrix(1 0 0 1 540 540)" id="bfa56aae-5f3c-4342-8f32-82188d173563"  >
<rect style="stroke: none; stroke-width: 1; stroke-dasharray: none; stroke-linecap: butt; stroke-dashoffset: 0; stroke-linejoin: miter; stroke-miterlimit: 4; fill: rgb(255,255,255); fill-rule: nonzero; opacity: 1; visibility: hidden;" vector-effect="non-scaling-stroke"  x="-540" y="-540" rx="0" ry="0" width="1080" height="1080" />
</g>
<g transform="matrix(1 0 0 1 540 540)" id="4f7b4430-f050-46b0-8cff-ba8465b92083"  >
</g>
<g transform="matrix(6.45 0 0 6.45 540 540)"  >
<g style="" vector-effect="non-scaling-stroke"   >
		<g transform="matrix(1 0 0 1 0 -14.55)" clip-path="url(#CLIPPATH_7)"  >
<clipPath id="CLIPPATH_7" >
	<rect transform="matrix(1 0 0 1 -0.26 14.55)" id="clip0" x="-42.5" y="-62" rx="0" ry="0" width="85" height="124" />
</clipPath>
<path style="stroke: none; stroke-width: 1; stroke-dasharray: none; stroke-linecap: butt; stroke-dashoffset: 0; stroke-linejoin: miter; stroke-miterlimit: 4; fill: rgb(238,232,213); fill-rule: nonzero; opacity: 1;" vector-effect="non-scaling-stroke"  transform=" translate(-43.54, -47.45)" d="M 66.9413 6.80024 C 59.1446 2.43766 50.3245 0.277133 41.4114 0.546415 C 33.6617 0.308912 25.9438 1.64708 18.7181 4.48125 C 12.0212 7.16705 7.11762 10.8027 3.73179 15.5952 C 2.58277 17.3085 1.79652 19.2423 1.42204 21.2758 C 0.97128 23.5617 1.7923 25.2296 3.67583 25.8522 C 5.85814 26.5728 7.23824 25.1582 8.4057 23.5228 L 8.82169 22.9385 C 10.1179 21.1077 11.4584 19.2152 13.1488 17.9545 C 15.7556 16.0268 18.6039 14.4551 21.6193 13.2801 C 28.0755 10.7638 35.2167 9.95614 44.0928 10.7417 C 50.2398 11.2857 55.4312 12.7133 59.9633 15.1056 C 66.4404 18.5244 70.5686 22.8625 72.5848 28.3679 C 75.4394 36.1682 73.865 42.4267 67.9047 46.9699 C 64.5038 49.4399 60.9478 51.6851 57.2593 53.6917 L 57.0866 53.7904 C 55.3042 54.811 53.4087 55.7231 51.5754 56.6054 C 50.2875 57.2254 48.9544 57.8675 47.6633 58.5446 C 38.7931 63.1962 32.6943 69.339 29.0187 77.3231 C 28.0815 79.2688 27.4163 81.3352 27.0419 83.4647 C 26.7751 85.0929 26.8451 86.7588 27.2472 88.3584 C 27.6494 89.9574 28.3749 91.4558 29.3787 92.7595 C 30.3774 94.0916 31.4057 94.378 32.0928 94.3825 L 32.1129 94.3825 C 32.5959 94.363 33.0677 94.2306 33.4907 93.9943 C 33.9137 93.7586 34.276 93.4262 34.5487 93.0237 C 35.0787 92.3394 35.6177 91.6603 36.1586 90.9819 C 37.5836 89.1849 39.0565 87.3268 40.3515 85.3785 C 44.398 79.2837 49.9011 74.3075 57.6696 69.7175 C 62.4729 66.9668 67.1332 63.9695 71.6324 60.7377 C 74.789 58.4139 77.6243 55.6764 80.0629 52.5972 C 85.1732 46.0616 86.8635 38.6007 85.0863 30.4212 C 82.8833 20.3058 76.7788 12.3601 66.9413 6.80024 Z" stroke-linecap="round" />
</g>
		<g transform="matrix(1 0 0 1 -11.16 49.2)" clip-path="url(#CLIPPATH_8)"  >
<clipPath id="CLIPPATH_8" >
	<rect transform="matrix(1 0 0 1 10.9 -49.2)" id="clip0" x="-42.5" y="-62" rx="0" ry="0" width="85" height="124" />
</clipPath>
<path style="stroke: none; stroke-width: 1; stroke-dasharray: none; stroke-linecap: butt; stroke-dashoffset: 0; stroke-linejoin: miter; stroke-miterlimit: 4; fill: rgb(238,232,213); fill-rule: nonzero; opacity: 1;" vector-effect="non-scaling-stroke"  transform=" translate(-32.37, -111.2)" d="M 30.0332 123.356 C 30.5839 123.438 31.1398 123.48 31.6965 123.479 C 34.3927 123.446 37.0093 122.554 39.1723 120.931 C 41.3352 119.308 42.9333 117.037 43.738 114.442 C 44.2238 112.472 44.2537 110.416 43.8254 108.432 C 43.3971 106.449 42.5221 104.591 41.2679 103.003 C 40.3147 101.695 39.0606 100.641 37.6134 99.9325 C 36.1662 99.2229 34.5695 98.8795 32.9612 98.9308 C 30.8239 98.9379 30.4738 99.0873 26.9591 101.159 C 24.5168 102.527 22.6082 104.692 21.5469 107.297 C 20.4857 109.903 20.3345 112.795 21.1184 115.499 C 22.4288 120.022 25.4291 122.665 30.0332 123.356 Z M 31.4931 106.086 C 31.6863 106.346 31.8793 106.59 32.066 106.831 C 32.6296 107.467 33.0916 108.188 33.4356 108.968 C 33.8303 110.059 33.9134 111.24 33.6752 112.377 C 33.4679 112.932 33.0586 113.386 32.5304 113.648 C 31.8288 114.105 30.9879 114.294 30.16 114.182 C 29.7343 114.067 28.4395 113.715 28.5278 111.157 C 28.6224 108.422 29.4898 106.917 31.4938 106.082 L 31.4931 106.086 Z" stroke-linecap="round" />
</g>
</g>
</g>
<g transform="matrix(1 0 0 1 50 50)"  >
<rect style="stroke: none; stroke-width: 1; stroke-dasharray: none; stroke-linecap: butt; stroke-dashoffset: 0; stroke-linejoin: miter; stroke-miterlimit: 4; fill: rgb(255,255,255); fill-opacity: 0; fill-rule: nonzero; opacity: 1;" vector-effect="non-scaling-stroke"  x="-50" y="-50" rx="0" ry="0" width="100" height="100" />
</g>
<g transform="matrix(1 0 0 1 540 540)"  >
<rect style="stroke: none; stroke-width: 1; stroke-dasharray: none; stroke-linecap: butt; stroke-dashoffset: 0; stroke-linejoin: miter; stroke-miterlimit: 4; fill: rgb(255,255,255); fill-rule: nonzero; opacity: 1; visibility: hidden;" vector-effect="non-scaling-stroke"  x="-540" y="-540" rx="0" ry="0" width="1080" height="1080" />
</g>
<g transform="matrix(1 0 0 1 50 50)"  >
<rect style="stroke: none; stroke-width: 1; stroke-dasharray: none; stroke-linecap: butt; stroke-dashoffset: 0; stroke-linejoin: miter; stroke-miterlimit: 4; fill: rgb(255,255,255); fill-opacity: 0; fill-rule: nonzero; opacity: 1;" vector-effect="non-scaling-stroke"  x="-50" y="-50" rx="0" ry="0" width="100" height="100" />
</g>
<g transform="matrix(1 0 0 1 540 540)"  >
<rect style="stroke: none; stroke-width: 1; stroke-dasharray: none; stroke-linecap: butt; stroke-dashoffset: 0; stroke-linejoin: miter; stroke-miterlimit: 4; fill: rgb(255,255,255); fill-rule: nonzero; opacity: 1; visibility: hidden;" vector-effect="non-scaling-stroke"  x="-540" y="-540" rx="0" ry="0" width="1080" height="1080" />
</g>
<g transform="matrix(1 0 0 1 50 50)"  >
<rect style="stroke: none; stroke-width: 1; stroke-dasharray: none; stroke-linecap: butt; stroke-dashoffset: 0; stroke-linejoin: miter; stroke-miterlimit: 4; fill: rgb(255,255,255); fill-opacity: 0; fill-rule: nonzero; opacity: 1;" vector-effect="non-scaling-stroke"  x="-50" y="-50" rx="0" ry="0" width="100" height="100" />
</g>
<g transform="matrix(1 0 0 1 540 540)"  >
<rect style="stroke: none; stroke-width: 1; stroke-dasharray: none; stroke-linecap: butt; stroke-dashoffset: 0; stroke-linejoin: miter; stroke-miterlimit: 4; fill: rgb(255,255,255); fill-rule: nonzero; opacity: 1; visibility: hidden;" vector-effect="non-scaling-stroke"  x="-540" y="-540" rx="0" ry="0" width="1080" height="1080" />
</g>
<g transform="matrix(1 0 0 1 50 50)"  >
<rect style="stroke: none; stroke-width: 1; stroke-dasharray: none; stroke-linecap: butt; stroke-dashoffset: 0; stroke-linejoin: miter; stroke-miterlimit: 4; fill: rgb(255,255,255); fill-opacity: 0; fill-rule: nonzero; opacity: 1;" vector-effect="non-scaling-stroke"  x="-50" y="-50" rx="0" ry="0" width="100" height="100" />
</g>
<g transform="matrix(1 0 0 1 540 540)"  >
<rect style="stroke: none; stroke-width: 1; stroke-dasharray: none; stroke-linecap: butt; stroke-dashoffset: 0; stroke-linejoin: miter; stroke-miterlimit: 4; fill: rgb(255,255,255); fill-rule: nonzero; opacity: 1; visibility: hidden;" vector-effect="non-scaling-stroke"  x="-540" y="-540" rx="0" ry="0" width="1080" height="1080" />
</g>
<g transform="matrix(1 0 0 1 50 50)"  >
<rect style="stroke: none; stroke-width: 1; stroke-dasharray: none; stroke-linecap: butt; stroke-dashoffset: 0; stroke-linejoin: miter; stroke-miterlimit: 4; fill: rgb(255,255,255); fill-opacity: 0; fill-rule: nonzero; opacity: 1;" vector-effect="non-scaling-stroke"  x="-50" y="-50" rx="0" ry="0" width="100" height="100" />
</g>
<g transform="matrix(1 0 0 1 540 540)"  >
<rect style="stroke: none; stroke-width: 1; stroke-dasharray: none; stroke-linecap: butt; stroke-dashoffset: 0; stroke-linejoin: miter; stroke-miterlimit: 4; fill: rgb(255,255,255); fill-rule: nonzero; opacity: 1; visibility: hidden;" vector-effect="non-scaling-stroke"  x="-540" y="-540" rx="0" ry="0" width="1080" height="1080" />
</g>
<g transform="matrix(1 0 0 1 50 50)"  >
<rect style="stroke: none; stroke-width: 1; stroke-dasharray: none; stroke-linecap: butt; stroke-dashoffset: 0; stroke-linejoin: miter; stroke-miterlimit: 4; fill: rgb(255,255,255); fill-opacity: 0; fill-rule: nonzero; opacity: 1;" vector-effect="non-scaling-stroke"  x="-50" y="-50" rx="0" ry="0" width="100" height="100" />
</g>
<g transform="matrix(1 0 0 1 540 540)"  >
<rect style="stroke: none; stroke-width: 1; stroke-dasharray: none; stroke-linecap: butt; stroke-dashoffset: 0; stroke-linejoin: miter; stroke-miterlimit: 4; fill: rgb(255,255,255); fill-rule: nonzero; opacity: 1; visibility: hidden;" vector-effect="non-scaling-stroke"  x="-540" y="-540" rx="0" ry="0" width="1080" height="1080" />
</g>
<g transform="matrix(1 0 0 1 50 50)"  >
<rect style="stroke: none; stroke-width: 1; stroke-dasharray: none; stroke-linecap: butt; stroke-dashoffset: 0; stroke-linejoin: miter; stroke-miterlimit: 4; fill: rgb(255,255,255); fill-opacity: 0; fill-rule: nonzero; opacity: 1;" vector-effect="non-scaling-stroke"  x="-50" y="-50" rx="0" ry="0" width="100" height="100" />
</g>
<g transform="matrix(1 0 0 1 540 540)"  >
<rect style="stroke: none; stroke-width: 1; stroke-dasharray: none; stroke-linecap: butt; stroke-dashoffset: 0; stroke-linejoin: miter; stroke-miterlimit: 4; fill: rgb(255,255,255); fill-rule: nonzero; opacity: 1; visibility: hidden;" vector-effect="non-scaling-stroke"  x="-540" y="-540" rx="0" ry="0" width="1080" height="1080" />
</g>
<g transform="matrix(NaN NaN NaN NaN 0 0)"  >
<g style=""   >
</g>
</g>
<g transform="matrix(NaN NaN NaN NaN 0 0)"  >
<g style=""   >
</g>
</g>
</svg>