<?xml version="1.0" encoding="UTF-8" standalone="no" ?>
<!DOCTYPE svg PUBLIC "-//W3C//DTD SVG 1.1//EN" "http://www.w3.org/Graphics/SVG/1.1/DTD/svg11.dtd">
<svg xmlns="http://www.w3.org/2000/svg" xmlns:xlink="http://www.w3.org/1999/xlink" version="1.1" width="1080" height="1080" viewBox="0 0 1080 1080" xml:space="preserve">
<desc>Created with Fabric.js 5.2.4</desc>
<defs>
</defs>
<g transform="matrix(1 0 0 1 540 540)" id="ad6722b8-c3df-459d-9d84-d1d3ebf84d13"  >
<rect style="stroke: none; stroke-width: 1; stroke-dasharray: none; stroke-linecap: butt; stroke-dashoffset: 0; stroke-linejoin: miter; stroke-miterlimit: 4; fill: rgb(255,255,255); fill-rule: nonzero; opacity: 1; visibility: hidden;" vector-effect="non-scaling-stroke"  x="-540" y="-540" rx="0" ry="0" width="1080" height="1080" />
</g>
<g transform="matrix(1 0 0 1 540 540)" id="5a37fb7e-f613-476b-87fc-33251644003b"  >
</g>
<g transform="matrix(1 0 0 1 50 50)"  >
<rect style="stroke: none; stroke-width: 1; stroke-dasharray: none; stroke-linecap: butt; stroke-dashoffset: 0; stroke-linejoin: miter; stroke-miterlimit: 4; fill: rgb(255,255,255); fill-opacity: 0; fill-rule: nonzero; opacity: 1;" vector-effect="non-scaling-stroke"  x="-50" y="-50" rx="0" ry="0" width="100" height="100" />
</g>
<g transform="matrix(1 0 0 1 540 540)"  >
<rect style="stroke: none; stroke-width: 1; stroke-dasharray: none; stroke-linecap: butt; stroke-dashoffset: 0; stroke-linejoin: miter; stroke-miterlimit: 4; fill: rgb(255,255,255); fill-rule: nonzero; opacity: 1; visibility: hidden;" vector-effect="non-scaling-stroke"  x="-540" y="-540" rx="0" ry="0" width="1080" height="1080" />
</g>
<g transform="matrix(38.61 0 0 38.61 596.04 584.04)"  >
<path style="stroke: rgb(0,0,0); stroke-width: 0; stroke-dasharray: none; stroke-linecap: butt; stroke-dashoffset: 0; stroke-linejoin: miter; stroke-miterlimit: 4; fill: rgb(226,226,226); fill-rule: nonzero; opacity: 1;" vector-effect="non-scaling-stroke"  transform=" translate(-12, -12)" d="M 20.56 18.44 L 15.889999999999999 13.770000000000001 C 17.817464718393214 10.76006705510948 17.167771422616298 6.7814595458428855 14.382939881161715 4.5410288151333535 C 11.59810833970713 2.3005980844238216 7.572670094849023 2.5180056008617218 5.045337847855372 5.045337847855373 C 2.51800560086172 7.572670094849025 2.300598084423818 11.59810833970713 4.54102881513335 14.382939881161715 C 6.781459545842882 17.167771422616298 10.760067055109479 17.817464718393218 13.77 15.89 L 18.439999999999998 20.560000000000002 C 19.025635093547912 21.14490675611503 19.974364906452085 21.14490675611503 20.56 20.560000000000002 C 20.84337205150049 20.280066117838132 21.002861040740054 19.898324864845037 21.002861040740054 19.500000000000004 C 21.002861040740054 19.10167513515497 20.84337205150049 18.71993388216187 20.56 18.44 Z M 5 10 C 5 7.238576250846033 7.238576250846033 5 10 5 C 12.761423749153966 5 15 7.238576250846032 15 9.999999999999998 C 15 12.761423749153966 12.76142374915397 15 10.000000000000002 15 C 7.238576250846033 15 5 12.761423749153966 5 10 Z" stroke-linecap="round" />
</g>
<g transform="matrix(6.03 0 0 6.03 527.01 520.08)"  >
<circle style="stroke: rgb(0,0,0); stroke-width: 0; stroke-dasharray: none; stroke-linecap: butt; stroke-dashoffset: 0; stroke-linejoin: miter; stroke-miterlimit: 4; fill: rgb(226,226,226); fill-rule: nonzero; opacity: 0.32;" vector-effect="non-scaling-stroke"  cx="0" cy="0" r="35" />
</g>
<g transform="matrix(1 0 0 1 540 540)"  >
<rect style="stroke: none; stroke-width: 1; stroke-dasharray: none; stroke-linecap: butt; stroke-dashoffset: 0; stroke-linejoin: miter; stroke-miterlimit: 4; fill: rgb(255,255,255); fill-rule: nonzero; opacity: 1; visibility: hidden;" vector-effect="non-scaling-stroke"  x="-540" y="-540" rx="0" ry="0" width="1080" height="1080" />
</g>
<g transform="matrix(1 0 0 1 540 540)"  >
<rect style="stroke: none; stroke-width: 1; stroke-dasharray: none; stroke-linecap: butt; stroke-dashoffset: 0; stroke-linejoin: miter; stroke-miterlimit: 4; fill: rgb(255,255,255); fill-rule: nonzero; opacity: 1; visibility: hidden;" vector-effect="non-scaling-stroke"  x="-540" y="-540" rx="0" ry="0" width="1080" height="1080" />
</g>
<g transform="matrix(1.61 0 0 1.61 511.15 519.28)"  >
<circle style="stroke: none; stroke-width: 1; stroke-dasharray: none; stroke-linecap: butt; stroke-dashoffset: 0; stroke-linejoin: miter; stroke-miterlimit: 4; fill: rgb(173,173,173); fill-rule: nonzero; opacity: 1;" vector-effect="non-scaling-stroke"  cx="0" cy="0" r="42" />
</g>
<g transform="matrix(1.61 0 0 1.61 507.43 254.99)"  >
<path style="stroke: none; stroke-width: 1; stroke-dasharray: none; stroke-linecap: butt; stroke-dashoffset: 0; stroke-linejoin: miter; stroke-miterlimit: 4; fill: rgb(226,226,226); fill-rule: nonzero; opacity: 1;" vector-effect="non-scaling-stroke"  transform=" translate(-256, -124.95)" d="M 486.2 59 L 25.8 59 L 25.8 132 L 68.2 132 L 68.2 190.9 L 447.3 190.9 L 447.3 132 L 486.1 132 L 486.1 59 z M 61.2 95.5 C 61.2 91.6 64.3 88.5 68.2 88.5 L 142.3 88.5 C 146.20000000000002 88.5 149.3 91.6 149.3 95.5 C 149.3 99.4 146.20000000000002 102.5 142.3 102.5 L 68.2 102.5 C 64.4 102.5 61.2 99.4 61.2 95.5 z M 447.3 102.5 L 373.20000000000005 102.5 C 369.30000000000007 102.5 366.20000000000005 99.4 366.20000000000005 95.5 C 366.20000000000005 91.6 369.30000000000007 88.5 373.20000000000005 88.5 L 447.30000000000007 88.5 C 451.20000000000005 88.5 454.30000000000007 91.6 454.30000000000007 95.5 C 454.30000000000007 99.4 451.2 102.5 447.3 102.5 z" stroke-linecap="round" />
</g>
</svg>